<?xml version="1.0" encoding="UTF-8" standalone="no"?>
<!-- Created with Inkscape (http://www.inkscape.org/) -->

<svg
   width="46.237492mm"
   height="61.585751mm"
   viewBox="0 0 46.237492 61.585752"
   version="1.1"
   id="svg1"
   xml:space="preserve"
   inkscape:export-filename="hc.svg"
   inkscape:export-xdpi="96"
   inkscape:export-ydpi="96"
   sodipodi:docname="hc.svg"
   inkscape:version="1.3-dev (77bc73e, 2022-05-18)"
   xmlns:inkscape="http://www.inkscape.org/namespaces/inkscape"
   xmlns:sodipodi="http://sodipodi.sourceforge.net/DTD/sodipodi-0.dtd"
   xmlns="http://www.w3.org/2000/svg"
   xmlns:svg="http://www.w3.org/2000/svg"><sodipodi:namedview
     id="namedview1"
     pagecolor="#ffffff"
     bordercolor="#000000"
     borderopacity="0.25"
     inkscape:showpageshadow="2"
     inkscape:pageopacity="0.0"
     inkscape:pagecheckerboard="0"
     inkscape:deskcolor="#d1d1d1"
     inkscape:document-units="mm"
     showgrid="false"
     inkscape:zoom="1.4501015"
     inkscape:cx="259.9818"
     inkscape:cy="273.08433"
     inkscape:window-width="1792"
     inkscape:window-height="1092"
     inkscape:window-x="0"
     inkscape:window-y="28"
     inkscape:window-maximized="0"
     inkscape:current-layer="layer1" /><defs
     id="defs1" /><g
     inkscape:label="Calque 1"
     inkscape:groupmode="layer"
     id="layer1"
     transform="translate(-89.359574,-120.39962)"><path
       id="path1"
       style="fill:#000000;stroke-width:0.0999782"
       d="m 117.13919,120.40546 c -1.59136,0.17731 -3.22876,0.25662 -4.74601,0.80234 -1.1615,0.53679 -1.9288,1.66074 -2.33766,2.83808 -0.50177,0.77223 -1.51915,0.51524 -2.29423,0.60213 -1.48128,0.008 -3.09133,0.1412 -4.25961,1.16091 -1.41797,1.03016 -2.69509,2.3512 -3.35976,3.99746 -2.308647,0.32982 -4.368707,1.72138 -5.746527,3.57394 -1.49226,1.73397 -3.12501,3.4877 -3.76598,5.74288 -1.77578,5.31524 -1.50001,11.09229 -0.33058,16.50486 0.54087,2.45187 1.2278,4.87684 2.09969,7.23086 0.6054,1.31174 1.81819,2.32859 2.02344,3.8196 0.40758,2.01738 0.26285,4.09257 0.25733,6.13739 -0.005,1.36424 -0.11182,2.74882 -0.0524,4.10047 0.57916,1.30485 2.07647,1.66152 3.27011,2.17173 3.096697,1.30658 6.233207,2.9426 9.682427,2.89631 2.35879,-0.0347 4.72847,-0.28992 7.0157,-0.87772 2.39105,-0.63139 4.63917,-1.91048 6.22387,-3.83312 0.36933,-0.45129 0.83181,-0.93482 0.91378,-1.52219 0.007,-2.00598 -0.5229,-4.05026 0.0541,-6.02258 0.34244,-1.56785 0.52077,-3.2192 1.23383,-4.66863 0.72449,-0.81422 1.71655,-1.35699 2.34204,-2.26767 2.31094,-2.71115 4.62413,-5.42353 6.7949,-8.24846 1.41277,-1.91833 2.74415,-3.97468 3.43942,-6.26514 -0.0554,-2.65746 -0.58702,-5.27712 -1.33002,-7.82152 -0.22733,-0.94912 -0.57587,-1.90404 -0.6985,-2.84541 0.99126,-4.4412 0.56251,-9.26298 -1.59925,-13.30555 -0.39369,-0.72657 -0.76393,-1.60045 -1.62558,-1.85841 -1.23793,-0.40221 -2.46095,-0.68073 -3.76419,-0.81449 -1.53712,-0.14358 -3.15023,-0.007 -4.54338,0.70298 -1.02979,-1.60659 -3.12563,-1.99093 -4.89697,-1.93105 z m 0.45421,2.91696 c 0.22804,0.008 1.12417,0.20406 0.49499,0.18223 -1.69526,0.0739 -3.48839,0.82261 -4.31926,2.38033 -0.46782,0.71761 -0.89633,1.53313 -1.24948,2.2705 -0.15395,-1.39503 -0.14312,-2.93981 0.63779,-4.15582 0.66542,-0.72285 1.73316,-0.49596 2.60618,-0.62988 0.5782,-0.0311 1.22392,-0.0828 1.82978,-0.0474 z m 7.39236,0.93697 c 1.22406,0.10115 2.52372,-0.0211 3.66634,0.50165 1.07946,0.91861 1.23997,2.44665 1.40877,3.76569 0.0338,0.43273 0.0554,0.82321 0.0748,1.25517 -2.24966,-1.27131 -4.75599,-2.23534 -6.78178,-3.79816 -0.21207,-0.46721 0.14295,-1.00093 0.40117,-1.38574 0.30941,-0.32793 0.80027,-0.42159 1.2307,-0.33861 z m -6.01343,2.38661 c 0.92946,0.20696 1.43606,1.11919 2.09015,1.72569 0.33872,0.21908 0.43015,0.45755 0.0878,0.75759 -0.26561,0.35122 -0.47418,0.85254 -0.78683,1.10683 -1.3024,-0.25222 -2.5292,-0.83029 -3.60235,-1.60331 0.30578,-1.01153 0.98115,-2.14978 2.21119,-1.9868 z m -11.44348,0.64051 c 0.61269,0.0285 1.4257,0.0899 1.62758,0.79289 0.83543,1.80822 1.07041,3.8188 1.3605,5.76967 0.27621,2.16354 0.41513,4.38605 0.44156,6.5699 -1.12468,-0.17635 -2.29622,-0.2341 -3.41698,-0.0589 -0.93008,0.35284 -0.81269,1.74283 -0.0385,2.20445 1.03707,0.7734 2.45561,0.50842 3.5412,-0.0118 -0.0309,0.30239 0.072,0.74963 -0.0217,0.97504 -1.30346,-0.21151 -2.88348,0.15542 -3.51758,1.42859 -0.17362,0.29636 -0.31601,0.60941 -0.4737,0.91451 -0.19707,-4.42783 -0.44289,-9.0148 -2.39061,-13.08065 -0.42958,-0.92801 -1.06134,-1.78382 -1.4606,-2.7036 0.3245,-1.2501 1.59399,-1.92768 2.68974,-2.40875 0.52624,-0.21659 1.0834,-0.40152 1.65919,-0.39127 z m 19.0915,4.06471 c 0.62673,0.30433 1.25286,0.61123 1.87937,0.91657 -0.0588,0.39916 -0.14412,0.31976 -0.31958,0.0339 -0.63488,-0.54466 -1.50281,-0.0318 -2.06306,0.38448 -0.92578,0.68855 -1.73227,1.62749 -2.10636,2.72831 -0.12426,0.67876 0.44232,1.19721 0.96009,1.52444 -0.22023,-0.0953 -0.48735,-0.16652 -0.80914,-0.006 -0.69804,-0.10332 -1.39334,-0.24565 -2.0956,-0.34134 -0.94202,-0.1439 -1.83012,-0.55254 -2.5147,-1.2198 -1.25081,-1.06008 -2.41085,-2.24285 -3.45385,-3.50445 -0.33191,-0.44333 -0.0681,-0.28635 0.25018,-0.0639 1.63492,0.9956 3.61985,1.70825 5.54639,1.3014 1.08958,-0.24277 1.95003,-1.0594 2.44541,-2.03493 0.20108,-0.30705 0.33856,-0.87402 0.75996,-0.45421 0.50696,0.24494 1.01393,0.48988 1.52089,0.73483 z m -13.4058,1.15999 c 0.6634,1.18669 1.4684,2.28468 2.19895,3.42964 -0.64025,-0.031 -1.36383,0.086 -1.89977,0.33589 -0.1675,-1.36351 -0.34559,-2.72583 -0.49092,-4.09191 0.0639,0.1088 0.12783,0.21758 0.19174,0.32638 z m -12.27437,0.0775 c 0.37783,0.47861 0.55245,1.08845 0.87713,1.60603 1.1366,2.30765 1.77901,4.81543 1.89581,7.36631 0.18389,0.43588 -0.19505,0.45575 -0.54544,0.47754 -0.89994,0.15512 -1.87304,0.2293 -2.6955,0.60121 -0.594497,0.6242 -0.0105,1.8416 0.86509,1.66845 0.84517,0.0407 1.6913,-0.0688 2.51308,-0.26246 0.0428,0.32202 0.0987,0.65809 -0.3018,0.71062 -1.13086,0.59351 -1.74165,1.833 -1.97602,3.04132 -0.79213,-1.09705 -1.06402,-2.46056 -1.55962,-3.69609 -0.610437,-1.67711 -1.133257,-3.41338 -2.036507,-4.96084 -0.71996,-1.04759 -1.76905,-1.84014 -2.92047,-2.36091 0.29847,-0.32965 0.62039,-0.63761 0.95873,-0.92608 0.34079,0.56912 0.68149,1.1383 1.02128,1.70802 0.34892,-1.24556 0.69716,-2.49132 1.04575,-3.73698 0.92451,-0.44627 1.80664,-1.18468 2.858487,-1.23614 z m 29.37499,4.55427 c 0.86486,3.15782 1.59643,6.37114 2.32949,9.57364 -0.25822,1.29024 -0.88739,2.47824 -1.52444,3.61866 -1.82696,3.04313 -4.36413,5.55953 -6.57728,8.31156 -0.76713,0.86432 -1.42605,1.85013 -2.30617,2.59909 -1.16012,0.69838 -2.44775,1.18144 -3.74553,1.5555 -1.70624,0.45379 -3.73982,0.46932 -5.29107,-0.57469 -0.83828,-0.46932 -1.5868,-1.14621 -2.47694,-1.49374 0.33882,-0.75168 -0.0884,-1.5579 -0.0938,-2.33718 -0.1724,-1.66105 -0.26145,-3.37514 0.12338,-5.01168 0.4101,-0.98195 1.30322,-1.64067 1.96161,-2.44911 1.41561,-1.47867 2.78797,-3.0165 4.36489,-4.32585 0.92481,-0.66103 2.02847,-1.20435 3.17263,-1.23614 0.62366,1.53776 1.136,3.26661 2.45597,4.37205 0.64776,0.499 1.59028,0.8526 2.36776,0.52217 0.53806,-0.47318 0.38592,-1.3073 -0.0803,-1.77071 -1.01551,-1.42054 -1.88265,-3 -2.1025,-4.75809 -0.2185,-0.56664 0.14466,-0.40274 0.54829,-0.35618 0.63367,0.002 1.37731,-0.36251 1.55274,-1.0078 0.13788,-0.83094 -0.74059,-1.24672 -1.15689,-1.82725 -0.0884,-0.18093 -0.63983,-0.60047 -0.3473,-0.64538 1.2462,-0.11446 2.48003,-0.3431 3.67866,-0.70543 -0.39105,-0.40224 -0.76555,-0.82081 -1.17223,-1.20758 0.68766,0.14219 1.51347,0.393 2.10375,-0.12511 0.70315,-0.45136 1.37281,-0.95655 1.9936,-1.51628 0.0739,0.26518 0.14777,0.53036 0.22166,0.79553 z m -16.56889,0.84177 c 0.85714,0.82518 2.13466,0.70647 3.19962,0.45962 0.62952,-0.0993 1.50296,-0.37914 1.95978,0.22305 -0.0637,0.28625 -0.004,0.82883 -0.18303,0.94755 -1.048,-0.46349 -2.32238,-0.57221 -3.38375,-0.10863 -0.49778,0.27242 -0.88881,0.69572 -1.26625,1.11116 -0.10444,-0.86894 -0.23986,-1.80739 -0.32637,-2.63275 z m -20.349407,2.89249 c 0.91626,0.36823 1.99824,0.57757 2.6847,1.33865 0.4239,0.47674 -0.24708,0.27796 -0.53866,0.30407 -0.91635,-0.0144 -1.83237,-0.043 -2.74847,-0.068 0.0839,-0.56399 0.17479,-1.12667 0.26925,-1.68898 0.11106,0.0381 0.22212,0.0761 0.33318,0.11423 z m 21.886077,1.96506 c 0.67599,0.10154 1.45382,0.0381 2.05206,0.3386 -0.67447,0.0719 -1.37712,0.10169 -2.05478,-0.004 -0.0554,-0.13526 -0.37467,-0.48357 0.002,-0.33452 z m -20.538427,2.33764 c 0.76254,6.6e-4 1.52669,0.0196 2.28461,0.10879 1.07845,1.83722 1.51222,4.14792 3.269177,5.51844 1.32374,0.99179 3.22518,1.0929 4.64951,0.25219 0.52445,-0.23299 1.07868,-0.43857 1.51216,-0.82743 0.6598,0.16704 1.29465,0.33278 1.95008,0.5086 0.0112,0.4702 -0.62073,-0.0513 -0.72847,0.48601 -0.63654,1.31151 -1.39698,2.69355 -1.20473,4.20638 0.0258,1.36975 -0.16776,2.95691 0.82305,4.06145 0.74648,0.74144 1.62442,1.45418 2.65362,1.7214 -0.26511,0.89686 -0.16439,1.98283 0.46373,2.73882 -0.3115,0.0487 -0.6212,0.28873 -0.88937,0.33997 -0.85653,-0.56027 -1.84475,0.0766 -2.64635,0.43245 -1.22344,0.53565 -2.57476,0.61739 -3.88249,0.78815 -2.12661,0.20799 -4.539347,-0.0689 -6.109077,-1.66376 -1.01937,-1.00443 -1.35,-2.44542 -1.84309,-3.73939 -0.8361,-2.67878 -1.57869,-5.39508 -2.07838,-8.15846 -0.39402,-2.22557 -0.49367,-4.44178 -0.38757,-6.69881 0.72076,-0.0373 1.44181,-0.0679 2.16359,-0.0748 z m 14.537227,1.98952 c 0.5412,0.0487 0.36706,0.0481 -0.0163,0.007 0.004,-0.004 0.0104,-0.008 0.0163,-0.007 z m -0.85946,9.72729 c -0.11151,0.0248 -0.0184,-0.041 0,0 z m 4.39517,10.23454 c 0.93309,0.37302 1.95925,0.34606 2.92785,0.48685 -0.2341,2.84549 -0.91337,5.77036 -0.14715,8.59084 0.0493,0.29269 -0.52185,0.40212 -0.69683,0.63659 -0.62056,0.45019 -1.27002,0.93975 -2.05123,1.04654 -0.69545,-1.53831 -0.82201,-3.28386 -0.69649,-4.9571 0.15469,-1.94777 0.38682,-3.89038 0.57682,-5.8418 l 0.0638,0.0279 z m -6.4214,4.10687 c 0.0182,2.4523 0.0143,4.90467 0.0163,7.35701 -2.3541,-0.41219 -4.52837,-1.45733 -6.781877,-2.21051 -0.47094,-0.17248 -0.94188,-0.34496 -1.41282,-0.51743 -0.0674,-2.03714 -0.19018,-4.07283 -0.38621,-6.10184 0.70808,0.66992 1.71785,0.35554 2.575627,0.32503 2.00013,-0.22166 4.04304,-0.32177 5.96313,-0.97369 0.009,0.70715 0.0172,1.41428 0.0258,2.12143 z"
       inkscape:export-filename="hc.svg"
       inkscape:export-xdpi="247.87227"
       inkscape:export-ydpi="247.87227" /></g></svg>
