<?xml version="1.0" encoding="UTF-8" standalone="no"?>
<!-- Created with Inkscape (http://www.inkscape.org/) -->

<svg
   width="97.75264mm"
   height="119.97625mm"
   viewBox="0 0 97.752642 119.97625"
   version="1.1"
   id="svg1"
   xml:space="preserve"
   inkscape:export-filename="ho.svg"
   inkscape:export-xdpi="137.11038"
   inkscape:export-ydpi="137.11038"
   sodipodi:docname="ho.svg"
   inkscape:version="1.3-dev (77bc73e, 2022-05-18)"
   xmlns:inkscape="http://www.inkscape.org/namespaces/inkscape"
   xmlns:sodipodi="http://sodipodi.sourceforge.net/DTD/sodipodi-0.dtd"
   xmlns="http://www.w3.org/2000/svg"
   xmlns:svg="http://www.w3.org/2000/svg"><sodipodi:namedview
     id="namedview1"
     pagecolor="#ffffff"
     bordercolor="#000000"
     borderopacity="0.25"
     inkscape:showpageshadow="2"
     inkscape:pageopacity="0.0"
     inkscape:pagecheckerboard="0"
     inkscape:deskcolor="#d1d1d1"
     inkscape:document-units="mm"
     showgrid="false"
     inkscape:zoom="0.84388837"
     inkscape:cx="476.95882"
     inkscape:cy="396.97194"
     inkscape:window-width="1792"
     inkscape:window-height="1092"
     inkscape:window-x="0"
     inkscape:window-y="28"
     inkscape:window-maximized="0"
     inkscape:current-layer="layer1" /><defs
     id="defs1" /><g
     inkscape:label="Calque 1"
     inkscape:groupmode="layer"
     id="layer1"
     transform="translate(-49.872816,-78.639512)"><path
       id="path1"
       style="fill:#000000;stroke-width:0.250619"
       d="m 105.2148,78.64689 c -3.31927,0.184997 -6.014751,3.273207 -6.049805,6.546014 -0.734452,7.208452 -1.037823,14.441685 -2.37632,21.556446 -0.898592,4.39211 0.579809,8.8248 0.113502,13.23755 -2.133202,-4.3024 -3.847299,-8.74367 -5.659235,-13.18154 -0.991952,-2.07474 -2.132758,-4.11508 -2.552292,-6.40427 -0.771493,-3.154992 -1.454247,-6.494191 -3.594298,-9.055966 -0.967441,-1.475803 -1.861513,-3.309109 -3.724567,-3.784474 -1.701478,-0.475305 -3.549687,-0.179017 -5.172241,0.435663 -1.441492,0.759215 -2.525512,2.161757 -3.087353,3.670436 -0.393458,1.644422 0.493785,3.230743 0.528142,4.870656 0.369856,3.174715 0.750676,6.419175 2.158272,9.332635 0.919449,2.13072 1.316908,4.42251 1.677155,6.69871 1.056593,4.94659 3.590424,9.38993 5.189192,14.15667 -0.04985,1.07588 -0.188741,2.36917 0.772594,3.11516 0.0763,3.51888 -0.429108,7.10224 0.208643,10.60355 -0.59817,1.30099 -1.523346,2.60089 -1.27251,4.115 0.0093,0.56527 0.02808,1.14372 -0.152866,1.68773 -1.262254,-0.53762 -2.207344,-1.62643 -3.228032,-2.51975 -2.262628,-2.14516 -4.443654,-4.37561 -6.404501,-6.80302 -2.24635,-2.85903 -5.275835,-5.25984 -8.878951,-6.08392 -1.637667,-0.28422 -3.279511,-0.56277 -4.905984,-0.9025 -2.372899,-0.006 -4.842278,0.46528 -6.860392,1.76003 -1.488662,1.06723 -2.600002,3.1377 -1.80613,4.93385 0.706916,1.24546 2.178848,1.71306 3.312545,2.4702 2.210091,1.20315 4.644477,2.35236 6.014502,4.57569 0.849868,1.20567 2.261703,1.76132 3.421092,2.58488 0.988197,0.94964 1.725026,2.1301 2.770513,3.02946 1.450495,1.46702 2.633976,3.2782 2.914788,5.35859 0.802973,2.95544 3.426969,4.80583 5.582558,6.75069 1.252506,1.05382 2.258972,2.37249 2.921459,3.86878 1.531457,2.76049 3.317917,5.38024 5.218492,7.89715 1.37761,1.58379 3.330304,2.88103 3.775929,5.0687 0.453359,1.31091 0.377355,2.74585 -0.211608,4.00077 -0.640088,1.54135 -1.116376,3.16784 -1.061693,4.85282 -0.07466,2.54214 -0.135108,5.11405 -0.849064,7.57359 -0.318881,1.17177 -0.760146,2.82582 0.432187,3.6588 1.06286,0.7125 2.559805,0.0472 2.980048,-1.10413 1.670997,-2.86911 2.251126,-6.24181 2.142462,-9.52768 0.0883,-1.98802 1.223318,-3.79105 1.354662,-5.74252 2.195751,1.15123 4.863211,1.65936 7.267347,0.91306 0.630232,-0.27328 1.177131,-0.80364 1.357205,-1.47908 0.651993,-0.0831 1.019403,-0.14474 0.457134,0.43025 -0.455788,0.67914 -0.333278,1.58593 0.139869,2.20979 -0.466202,0.67986 -0.513291,1.6799 0.033,2.33019 -0.33025,1.59307 1.38255,2.83776 2.85488,2.64417 1.04783,0.0795 2.249,-0.59823 2.23103,-1.75796 0.0907,-0.38902 -0.34119,-0.80343 0.0992,-1.03344 0.46367,-0.47273 0.6857,-1.21128 0.4503,-1.84624 0.20524,-0.76962 0.94668,-1.36291 0.75814,-2.21656 -0.0838,-0.50485 -0.40444,-0.94838 -0.81804,-1.23946 1.39109,-0.0653 2.77498,-0.19533 4.15011,-0.41108 -0.28334,0.3415 -0.14745,0.89377 -0.60717,1.06883 -0.7216,0.58273 -0.77236,1.63321 -0.47115,2.4285 -0.0367,0.62277 0.46044,1.08839 0.43722,1.70025 0.28418,0.46083 -0.263,0.92925 -0.0883,1.44432 0.1181,1.74899 2.49408,3.07478 3.88387,1.78847 0.55887,-0.51939 0.77577,-1.35901 0.58254,-2.09055 0.52639,-0.36625 0.71646,-1.03091 0.78499,-1.62162 0.40825,-0.56373 0.70397,-1.24271 0.85729,-1.9067 -0.0701,-0.45148 -0.0968,-0.85823 0.0785,-1.28284 0.0416,-0.38504 -0.0438,-0.78932 -0.25409,-1.11552 1.8996,-0.0136 3.93507,0.0948 5.67258,-0.79117 1.18846,-0.70239 1.49496,-2.7087 0.15287,-3.41884 -1.28013,-0.73486 -2.6774,0.22609 -4.03031,0.0599 -3.31801,-0.0255 -6.65169,-0.93479 -9.95699,-0.44951 -4.02692,0.32638 -8.073427,0.8404 -12.074344,0.52181 -0.512299,0.0853 -0.446399,-0.29802 -0.551559,-0.66932 -0.330127,-0.98658 -1.382647,-1.38108 -2.315718,-1.54518 -2.249999,-0.85424 -4.071005,-2.54409 -5.707579,-4.25623 -1.706541,-2.15852 -3.020418,-4.60011 -4.534465,-6.88649 -1.373462,-2.1385 -2.640545,-4.37442 -4.263731,-6.33156 -0.690396,-0.59245 -1.754538,-0.54583 -2.262008,-1.38405 -1.63019,-1.7567 -2.446494,-4.05147 -3.198639,-6.2774 -0.688117,-1.4595 -1.788838,-2.67963 -2.820751,-3.89946 -0.609568,-0.5876 -1.638741,-1.05246 -1.497914,-2.05865 -0.118441,-0.96472 -0.993512,-1.72108 -1.879843,-1.87984 -0.276449,-1.39866 -2.05711,-2.35147 -3.305217,-1.53486 -1.032411,-1.40003 -2.261063,-2.67515 -3.760383,-3.57827 -0.964088,-0.74469 -2.030274,-1.35214 -3.141326,-1.84849 1.100381,-0.22086 2.204137,-0.61716 3.325021,-0.27749 3.123162,0.60868 6.096147,2.00119 8.625323,3.92196 0.784048,0.59959 1.326297,1.42141 1.713231,2.31177 0.852335,1.18544 2.02851,2.09456 3.046937,3.1322 2.652489,2.44776 5.232318,5.00643 8.130265,7.16085 2.118595,1.14959 4.739719,0.26057 6.399686,-1.2941 1.418354,-1.14386 2.964384,-2.35429 3.677097,-4.08102 0.406346,-1.43011 -1.165312,-2.97097 -2.577139,-2.33469 -0.08699,-0.35373 0.307469,-0.758 0.781992,-0.67099 1.723596,-0.31241 3.043528,-1.87897 4.894062,-1.65751 0.898282,-0.11944 0.264437,0.27888 0.07845,0.74687 -0.52922,1.27068 0.647159,2.41006 1.717838,2.88726 2.725803,1.5015 4.791334,4.3414 5.105144,7.47423 0.4504,1.81312 1.11204,3.79794 0.26002,5.60396 -0.52427,1.23247 0.0703,2.5276 0.0624,3.79734 0.20571,3.10761 0.36438,6.26859 0.27532,9.40519 -0.0259,0.98772 -1.187652,1.25534 -1.497468,2.11858 -0.728293,1.17082 0.161576,2.81511 1.521508,2.89729 2.09911,0.12855 3.79579,-1.78895 4.1811,-3.72663 0.49026,-2.6736 0.30484,-5.4149 0.34765,-8.12008 -0.0793,-3.80771 0.015,-7.62989 -0.35897,-11.42365 -0.12911,-1.99153 -0.95401,-3.82533 -1.71058,-5.64295 -0.58104,-1.257 -1.21781,-2.51976 -2.14727,-3.55838 2.14301,1.21661 4.17674,2.64289 6.07151,4.20227 0.87466,0.28887 1.4883,0.95695 2.24731,1.43105 2.0109,1.14531 4.1545,2.07189 6.35429,2.78672 1.10918,0.39931 2.72483,0.0279 2.94038,-1.3017 0.30683,-1.55797 -1.14302,-2.8026 -2.53663,-3.11282 -1.35149,-0.27996 -2.41007,-1.20781 -3.68625,-1.68155 -0.97357,-0.50067 -1.74589,-1.33567 -2.7225,-1.857 -1.1377,-0.66087 -2.17542,-1.47302 -3.11039,-2.38987 -2.808,-2.11364 -6.1966,-3.26026 -9.514099,-4.30153 -1.724341,-0.48436 -3.511398,-0.97312 -5.308235,-0.91546 -0.79851,0.25544 -1.59074,0.51319 -2.417263,0.641 -0.502727,0.17723 -0.928253,0.50879 -1.351008,0.82423 -0.148679,-2.91224 -0.04619,-5.82924 0.02479,-8.74229 2.184758,-0.18588 3.996071,-1.62944 6.127046,-2.02858 0.390397,-0.33798 0.57685,-0.36558 0.866563,0.0865 1.514073,1.32581 3.663151,1.41978 5.445396,2.07588 0.86154,0.37514 1.94,0.7526 2.7588,0.0583 1.02332,-0.69711 1.0921,-2.23554 0.23538,-3.09054 -0.44915,-0.43221 0.70555,0.0306 0.93178,-0.0556 1.15512,0.22275 2.52213,-0.47067 2.71854,-1.6836 0.40811,-0.16906 0.70861,-0.43653 0.87175,0.1384 1.01667,1.55791 2.79769,2.41774 4.60042,2.66119 2.01802,0.48101 3.97251,1.41524 6.06424,1.47467 0.57327,-0.01 0.89164,-0.62882 1.27539,-0.84766 0.57308,-0.17105 0.39146,0.52879 0.61978,0.86192 0.5858,1.47809 1.94852,2.44785 3.37523,3.02551 1.48055,0.80886 2.90273,1.78542 4.12066,2.94475 0.37358,0.78153 0.88974,1.66466 1.84341,1.76809 0.77802,2.55976 0.4508,5.30055 0.0496,7.89783 -0.62911,3.28885 -1.32296,6.57703 -1.70603,9.8883 -0.66944,4.70608 -1.60736,9.34426 -3.40963,13.75082 -1.11544,3.04268 -1.64559,6.24725 -2.43472,9.37751 -0.92275,3.02633 -2.10989,6.02726 -2.22689,9.22775 -0.19361,2.73535 -0.29406,5.50135 -0.0414,8.23206 0.25453,1.27729 1.81617,2.22874 2.98089,1.42331 1.39834,-0.84075 1.27491,-2.66711 1.51299,-4.07279 0.37129,-3.04889 0.31726,-6.14331 0.785,-9.17839 0.53403,-2.00314 1.70055,-3.8824 2.04194,-5.88169 0.60914,-2.26237 0.40125,-4.7679 1.66089,-6.824 0.88128,-1.55536 1.64265,-3.19341 1.9318,-4.97098 0.92221,-3.91581 1.79968,-7.85613 2.31458,-11.84787 0.22702,-2.11033 0.0353,-4.27046 0.68856,-6.32008 0.79814,-2.76192 1.02111,-5.61128 1.06971,-8.4732 0.0325,-1.41684 0.0689,-2.74201 0.68686,-4.05708 1.22205,-2.76314 2.724,-5.3933 4.08282,-8.09064 1.5881,-3.12959 3.32308,-6.1802 5.09632,-9.20625 1.33928,-2.545 2.46885,-5.34836 2.25355,-8.28085 -0.0458,-2.04219 -0.482,-4.2411 -2.04708,-5.68504 -1.36681,-1.43292 -3.74647,-1.91149 -5.41653,-0.71941 -1.81536,1.126 -2.44603,3.27045 -3.17199,5.14361 -1.13456,2.9537 -2.59826,5.78925 -4.53204,8.30186 -1.06258,1.53001 -2.30242,2.97064 -3.62692,4.16236 -1.58236,1.94318 -1.60651,4.71799 -3.2647,6.62185 0.58937,-4.30299 1.68424,-8.56085 2.43268,-12.81141 0.83212,-4.30335 1.36031,-8.65767 2.50054,-12.85598 0.64535,-2.45629 0.98672,-4.989513 0.88603,-7.531453 -0.0303,-1.628219 0.24444,-3.285291 -0.0434,-4.895854 -0.58046,-2.02168 -2.3336,-3.525017 -4.19479,-4.366571 -1.6042,-0.713568 -3.49342,-0.526254 -4.97712,0.389 -1.11837,0.508631 -2.07505,1.506682 -2.14687,2.784371 -0.70504,3.262808 -1.68135,6.46662 -2.13913,9.780968 -0.51471,3.069939 -1.10805,6.139879 -2.50485,8.908799 -1.25961,2.71185 -2.20197,5.58184 -2.5444,8.56095 -0.1914,1.24266 -0.35893,2.71208 -0.58254,3.81752 -0.23676,-4.58766 -0.18483,-9.29067 -0.77718,-13.88658 -0.0914,-1.64017 0.25638,-3.08339 0.30475,-4.759521 0.24831,-4.764252 0.22143,-9.542829 0.0655,-14.308985 -0.051,-1.983232 -0.58748,-4.138619 -2.26911,-5.373893 -1.20095,-1.002474 -2.75754,-1.625104 -4.33513,-1.542276 z m 0.6941,4.992945 c 0.51976,-0.0089 1.07488,0.337636 0.95394,0.921278 0.34402,3.17304 0.21273,6.497944 0.28345,9.769035 -1.31093,-0.388466 -2.69768,-0.185985 -4.03237,-0.09709 0.24095,-2.939254 0.10678,-5.941395 1.03702,-8.785681 0.33459,-0.754197 0.82723,-1.745997 1.75796,-1.807541 z m 19.19092,5.172665 c 1.12761,0.656683 1.55439,2.06805 1.77862,3.282495 0.34481,2.499028 -0.63814,4.911037 -0.7788,7.38303 -1.04348,-0.744381 -2.35808,-0.953395 -3.58616,-1.20847 0.65738,-2.809649 0.83992,-5.745221 1.79981,-8.473942 0.20653,-0.326531 0.37151,-0.94538 0.78653,-0.983113 z m -45.702903,3.579965 c 1.077002,0.634332 1.480132,1.947572 2.135191,2.955397 0.843835,1.478021 1.941252,2.890867 2.100423,4.645333 0.228272,0.522615 0.03708,0.723365 -0.506742,0.759655 -1.273036,0.48257 -2.843285,0.34099 -3.840422,1.42099 -0.332017,0.27359 -0.4866,1.12366 -0.62129,0.29741 -0.834293,-2.691804 -0.81655,-5.563138 -0.951771,-8.413358 0.258338,-0.726635 0.788414,-1.705634 1.684611,-1.665427 z m 23.673623,5.936997 c 1.3781,0.114307 2.74836,0.06645 4.08607,0.442073 -0.0223,2.430685 -0.15888,4.864715 -0.24995,7.296275 -1.59073,-0.34386 -3.31923,-0.26178 -4.84008,0.32019 -0.68032,0.5483 -0.10409,-0.65322 -0.13193,-1.03588 0.41806,-2.33205 0.88685,-4.66545 1.00162,-7.037118 l 0.10513,0.01133 z m 18.62903,3.993118 c 0.91693,0.52863 2.00677,0.7952 3.0408,0.79945 -0.34315,1.44425 0.15427,2.94 -0.29747,4.37322 -0.13216,0.62938 -0.29768,1.24441 -0.4338,1.88396 -1.26585,-0.85205 -2.80464,-1.12575 -4.28439,-1.3572 0.6949,-1.90144 1.31156,-3.83127 1.83026,-5.78825 l 0.0901,0.0553 z m -36.549508,2.68136 c 0.819468,1.90689 1.864306,3.70961 2.637977,5.63745 -1.370333,0.27149 -2.693819,0.76361 -4.037826,1.15033 -0.471019,0.16255 -0.931428,0.37433 -1.333153,0.67168 -0.157049,-1.91262 -1.784673,-3.36914 -1.73937,-5.31727 0.206176,-0.6465 -0.07024,-1.2995 -0.499914,-1.79101 1.575572,0.39416 3.205392,-0.17655 4.683298,-0.70043 0.214727,-0.19187 0.188313,0.256 0.288988,0.34925 z m 57.287678,2.3467 c 0.96187,2.30597 0.0163,4.82873 -0.92474,6.97687 -0.21711,0.12255 -0.58721,-0.52137 -0.90551,-0.6577 -0.25362,-0.30882 -1.11094,-0.41723 -0.68171,-0.87175 0.7614,-1.86426 1.43287,-3.79481 2.46239,-5.54037 z m -41.00535,3.97659 c 1.90626,0.32049 3.86124,0.3148 5.78207,0.33672 0.42997,0.001 0.0845,1.00648 0.19667,1.40678 -0.0264,2.41786 -0.15482,4.83796 -0.0355,7.25495 -1.66366,-0.60485 -3.51649,-0.55699 -5.24496,-0.2768 -0.75395,0.44311 -0.29487,-0.64795 -0.42815,-1.0275 -0.0117,-2.58626 -0.29617,-5.1469 -0.33412,-7.70861 z m 16.62112,1.99759 c 1.30158,0.51496 2.74643,0.53939 4.01997,1.13824 0.39771,0.11237 0.81512,0.15726 1.22706,0.11981 -0.46284,3.02089 -1.39916,5.9386 -2.08642,8.90963 -1.4252,-1.1604 -3.35211,-1.32435 -5.10863,-1.53279 0.79138,-2.86394 1.04436,-5.84026 1.75796,-8.72165 l 0.0962,0.0439 z m -28.466193,1.66294 c 0.818318,1.51055 1.52076,3.09998 1.920842,4.77428 0.432495,1.1094 0.977126,2.17102 1.537242,3.22021 -1.865414,0.0796 -3.493642,1.12557 -5.193625,1.78001 -0.436178,0.35473 -0.546652,-0.50941 -0.842883,-0.76587 -0.906959,-1.23411 -1.749089,-2.52889 -2.202237,-4.00364 -0.377302,-0.96449 -0.706895,-1.94772 -0.984878,-2.94543 1.114886,0.34353 2.285691,-0.17636 3.332073,-0.5433 0.971945,-0.38471 2.03403,-1.08277 2.063695,-2.24341 0.123257,0.24239 0.246514,0.48476 0.369771,0.72715 z m 48.243793,2.04924 c 0.43217,0.39206 0.98094,0.69558 1.48734,0.92339 -0.69656,1.29218 -1.20596,2.68862 -2.0575,3.89396 -0.69571,-0.61127 -1.47628,-1.17677 -2.37562,-1.45429 0.99502,-1.11029 2.05491,-2.17195 2.90239,-3.40438 z m -5.10244,6.72198 c 0.75269,0.64661 1.5093,1.31849 2.39628,1.77242 -0.70224,1.61208 -1.42299,3.24546 -2.22689,4.70993 -0.73827,-0.79079 -1.6845,-1.38337 -2.71234,-1.71871 0.93915,-1.59212 1.43674,-3.39412 2.30952,-5.01979 0.0778,0.0853 0.15562,0.17077 0.23343,0.25615 z m -32.03582,9.52935 c -1.553517,0.0327 -2.809047,2.04779 -1.716649,3.33001 1.160309,1.36627 3.111869,1.27572 4.698209,1.75307 2.10248,0.42053 4.11705,1.17525 6.09506,1.97495 2.95083,0.87741 5.60547,2.57951 8.64656,3.18438 2.34329,0.66949 4.55792,1.75689 6.46894,3.27387 1.01661,0.65223 2.52878,1.40259 3.61095,0.48752 0.97316,-0.88024 0.76662,-2.48667 -0.16112,-3.31967 -1.33288,-1.54316 -3.2715,-2.30449 -4.95315,-3.36393 -2.98241,-1.51183 -6.49331,-1.64943 -9.35936,-3.43047 -0.84995,-0.38678 -1.76067,-0.57541 -2.57302,-1.03897 -1.21749,-0.34772 -2.45717,-0.60698 -3.62444,-1.11719 -1.45594,-0.54882 -2.97746,-0.95458 -4.52116,-1.11171 -0.83061,-0.37685 -1.67755,-0.72041 -2.61082,-0.62186 z"
       inkscape:export-filename="ho.svg"
       inkscape:export-xdpi="127.66026"
       inkscape:export-ydpi="127.66026" /></g></svg>
