<?xml version="1.0" encoding="UTF-8" standalone="no"?>
<!-- Created with Inkscape (http://www.inkscape.org/) -->

<svg
   width="156.07283mm"
   height="66.48764mm"
   viewBox="0 0 156.07283 66.48764"
   version="1.1"
   id="svg1"
   xml:space="preserve"
   sodipodi:docname="ip.svg"
   inkscape:version="1.3-dev (77bc73e, 2022-05-18)"
   inkscape:export-filename="ip.svg"
   inkscape:export-xdpi="97.809464"
   inkscape:export-ydpi="97.809464"
   xmlns:inkscape="http://www.inkscape.org/namespaces/inkscape"
   xmlns:sodipodi="http://sodipodi.sourceforge.net/DTD/sodipodi-0.dtd"
   xmlns="http://www.w3.org/2000/svg"
   xmlns:svg="http://www.w3.org/2000/svg"><sodipodi:namedview
     id="namedview1"
     pagecolor="#ffffff"
     bordercolor="#000000"
     borderopacity="0.25"
     inkscape:showpageshadow="2"
     inkscape:pageopacity="0.0"
     inkscape:pagecheckerboard="0"
     inkscape:deskcolor="#d1d1d1"
     inkscape:document-units="mm"
     showgrid="false"
     inkscape:zoom="0.62450934"
     inkscape:cx="214.56845"
     inkscape:cy="188.94834"
     inkscape:window-width="1792"
     inkscape:window-height="1092"
     inkscape:window-x="0"
     inkscape:window-y="28"
     inkscape:window-maximized="0"
     inkscape:current-layer="layer1" /><defs
     id="defs1" /><g
     inkscape:label="Calque 1"
     inkscape:groupmode="layer"
     id="layer1"
     transform="translate(-25.182805,-99.588318)"><path
       id="path1"
       style="fill:#000000;stroke-width:0.181008"
       d="m 117.79493,99.604457 c -3.96839,0.126446 -7.85994,1.543643 -10.67049,3.948323 -0.43338,0.32073 -0.80423,0.76915 -1.31797,0.97306 -20.991793,0.43643 -41.985849,0.80597 -62.974488,1.345 -3.178269,0.10718 -6.372445,0.11458 -9.530869,0.44867 -2.994232,0.54114 -5.487095,2.41623 -6.973162,4.65125 -1.338709,2.07028 -1.569308,4.68452 -0.34183,6.83416 1.661557,3.16634 5.477502,5.34079 9.497135,5.61818 7.067383,0.83282 14.193083,1.2181 21.300726,1.7131 6.431674,0.4094 12.86718,0.77368 19.298548,1.1868 -0.835816,3.18229 -0.176912,6.62661 1.844557,9.39791 0.783717,1.11606 1.750478,2.12828 2.774116,3.08859 0.03505,2.35499 -0.08963,4.85276 1.259769,6.99359 1.565525,2.74933 4.043523,5.10004 6.994258,6.81245 -0.17715,2.21028 -0.0389,4.51026 1.10554,6.53831 1.39536,2.76409 3.85961,5.24176 7.17902,6.389 2.44664,0.84996 5.19059,0.54617 7.69005,0.0384 4.04729,-0.94604 7.9353,-2.33161 11.75138,-3.80821 1.74565,-0.65841 3.44655,-1.4249 5.1854,-2.0783 5.54264,-0.2499 11.09502,-1.03832 16.26988,-2.79889 7.33698,-2.46248 13.84273,-6.74473 18.41406,-12.23867 0.29927,-0.2168 0.36303,-0.80225 0.81144,-0.75233 7.08196,0.3326 14.17067,0.60823 21.26132,0.72577 1.54463,-0.11779 2.74933,-1.48669 2.62325,-2.77552 -0.22576,-0.88955 -0.80352,-1.85985 -1.90484,-2.12178 -1.60908,-0.363 -3.29897,-0.32165 -4.94779,-0.43549 -5.69071,-0.23746 -11.38384,-0.44969 -17.07811,-0.6078 -1.13432,0.02 -2.31354,-0.0218 -3.40285,0.28179 -1.21829,0.45263 -1.5376,1.6578 -2.28977,2.48738 -2.82406,3.61985 -6.80334,6.5115 -11.18866,8.67922 -3.49048,1.67706 -7.35274,2.81499 -11.20552,3.52831 -0.56787,0.15221 0.31352,-0.44122 0.37834,-0.64531 1.92641,-2.10298 2.6885,-4.9222 2.062,-7.53603 -0.5389,-2.51915 -2.42894,-4.8493 -5.17324,-5.94778 0.0362,-0.74644 0.1815,-1.58369 0.14252,-2.36979 -0.0231,-2.39486 -0.816,-4.78597 -2.34656,-6.79783 3.77999,3.05037 8.15898,5.7222 13.18527,7.01486 2.6664,0.71183 5.54434,0.81626 8.28189,0.36611 1.74954,-0.44815 2.34632,-2.55592 1.13398,-3.69221 -0.79034,-0.83329 -2.15235,-0.87315 -3.30392,-0.78984 -2.42165,0.0448 -4.81227,-0.25745 -7.02635,-1.14036 -4.21128,-1.63289 -7.66915,-4.36644 -10.77687,-7.23795 -0.67789,-0.62359 -1.28551,-1.29658 -1.90588,-1.95742 0.84034,-1.09457 1.65455,-2.24941 2.04124,-3.52366 0.16778,-1.27916 -1.11931,-2.57321 -2.6613,-2.49492 -1.23293,-0.0652 -2.24881,0.74008 -2.73444,1.64529 -1.18464,1.81627 -2.53636,3.55665 -4.18144,5.09449 -2.37576,2.2663 -5.1426,4.34577 -8.45549,5.53648 -1.32489,0.45113 -2.98881,0.74612 -4.25692,0.0322 -1.01906,-0.7833 -1.05474,-2.06882 -1.09313,-3.15742 0.0543,-3.53614 1.36892,-6.95575 2.92304,-10.19779 1.64322,-3.27387 3.68685,-6.46113 6.52907,-9.09146 1.42489,-1.19367 3.26302,-1.93789 5.27879,-1.98751 3.81821,-0.19757 7.51494,0.75281 11.03851,1.89805 5.84536,1.95381 11.30019,4.83507 16.43284,7.92502 1.04667,0.56167 2.00493,1.49266 3.34672,1.43018 9.05555,0.63044 18.13096,1.03464 27.19999,1.47992 1.29621,0.0294 2.61799,0.15097 3.90087,-0.0297 1.85873,-0.50343 2.6479,-2.73132 1.39971,-4.02475 -0.54761,-0.66592 -1.50303,-0.97631 -2.43308,-0.94564 -7.83313,-0.57027 -15.68809,-0.8779 -23.53269,-1.30724 -1.68808,-0.11277 -3.39653,-0.13636 -5.06801,-0.35166 -1.26084,-0.4005 -2.23431,-1.24064 -3.38586,-1.81319 -4.83006,-2.76325 -9.87744,-5.28847 -15.25138,-7.20021 -4.16621,-1.40172 -8.6116,-2.402382 -13.12232,-2.24507 z M 102.74437,109.9142 c -1.37698,2.40734 -2.68255,4.86433 -3.55624,7.44704 -0.16409,0.31682 -0.19205,0.77046 -0.44906,0.99753 -6.32357,0.94291 -12.639869,1.94477 -18.975831,2.81203 -5.324205,-0.16554 -10.645826,-0.58961 -15.973858,-0.88465 -8.717255,-0.52805 -17.442137,-1.09327 -26.118256,-1.92467 -1.878006,-0.2444 -4.16054,-0.29 -5.567885,-1.59504 -0.968918,-1.08848 -0.847181,-2.64485 -0.22255,-3.83776 0.757049,-1.16784 2.410708,-1.58685 3.88284,-1.54545 8.877516,-0.362 17.765472,-0.48028 26.649084,-0.68733 13.443111,-0.2817 26.887766,-0.57888 40.331756,-0.7817 z m -5.15516,13.78787 c 0.0771,1.85064 -0.14122,3.72709 0.2523,5.55748 0.15502,0.4988 0.41769,1.01702 0.58054,1.46244 -4.49839,1.41808 -9.03792,2.74585 -13.56876,4.10414 -2.212522,-1.91644 -3.420173,-4.76855 -2.669048,-7.4327 0.157477,-0.60894 0.398838,-1.20149 0.706987,-1.76657 2.046217,-0.53179 4.190561,-0.6965 6.283671,-1.04872 2.79896,-0.40781 5.59973,-0.80641 8.39456,-1.23454 0.006,0.11943 0.0133,0.23897 0.0198,0.35847 z m 18.74521,6.31467 c 1.98036,1.44372 4.09951,3.10734 4.58267,5.40237 0.23757,0.98712 0.17915,2.00057 0.19557,3.00204 -1.86195,1.63026 -4.19014,2.81821 -6.5566,3.78948 -5.10109,2.11821 -10.54483,3.5886 -15.97853,4.99141 -1.77694,0.42536 -3.52314,0.90672 -5.33817,1.20543 -0.86272,0.0894 -1.41468,-0.5928 -2.05472,-0.96528 -2.19914,-1.56505 -4.073755,-3.72767 -4.25168,-6.24623 -0.07693,-0.62617 -0.09622,-1.26676 0.06171,-1.88513 4.91176,-1.64208 9.92854,-3.0663 14.91883,-4.52283 1.00677,-0.26275 2.03147,-0.54477 3.09564,-0.46223 2.66816,-0.0248 5.18708,-0.97659 7.47616,-2.07349 1.34894,-0.65381 2.62016,-1.46135 3.84911,-2.23554 z m 7.22512,13.55927 c 1.47661,0.2542 2.77963,1.32282 2.83576,2.65304 0.27383,1.75722 -0.53582,3.5434 -1.96492,4.80328 -1.97121,1.95047 -4.32363,3.45065 -7.00861,4.60338 -4.49994,1.87578 -8.93649,3.65648 -13.75154,4.82983 -1.76167,0.41579 -3.99373,0.63093 -5.66621,-0.34031 -2.31415,-1.17833 -3.43338,-3.62631 -3.0851,-5.86153 0.0648,-0.44493 0.0628,-1.00615 0.42539,-1.33275 3.71327,-0.96866 7.48181,-1.78546 11.13507,-2.91563 5.15148,-1.54141 10.28518,-3.25531 14.93367,-5.72988 0.53447,-0.25629 1.03499,-0.66403 1.58505,-0.8331 0.18713,0.0413 0.3743,0.0826 0.56144,0.12365 z"
       inkscape:export-filename="ip.svg"
       inkscape:export-xdpi="114.60777"
       inkscape:export-ydpi="114.60777" /></g></svg>
