<?xml version="1.0" encoding="UTF-8" standalone="no"?>
<!-- Created with Inkscape (http://www.inkscape.org/) -->

<svg
   width="88.080727mm"
   height="156.25645mm"
   viewBox="0 0 88.080725 156.25645"
   version="1.1"
   id="svg1"
   xml:space="preserve"
   sodipodi:docname="pc.svg"
   inkscape:version="1.3-dev (77bc73e, 2022-05-18)"
   inkscape:export-filename="pc.svg"
   inkscape:export-xdpi="97.59951"
   inkscape:export-ydpi="97.59951"
   xmlns:inkscape="http://www.inkscape.org/namespaces/inkscape"
   xmlns:sodipodi="http://sodipodi.sourceforge.net/DTD/sodipodi-0.dtd"
   xmlns="http://www.w3.org/2000/svg"
   xmlns:svg="http://www.w3.org/2000/svg"><sodipodi:namedview
     id="namedview1"
     pagecolor="#ffffff"
     bordercolor="#000000"
     borderopacity="0.25"
     inkscape:showpageshadow="2"
     inkscape:pageopacity="0.0"
     inkscape:pagecheckerboard="0"
     inkscape:deskcolor="#d1d1d1"
     inkscape:document-units="mm"
     showgrid="false"
     inkscape:zoom="0.91682945"
     inkscape:cx="164.69803"
     inkscape:cy="448.28403"
     inkscape:window-width="1792"
     inkscape:window-height="1092"
     inkscape:window-x="0"
     inkscape:window-y="28"
     inkscape:window-maximized="0"
     inkscape:current-layer="layer1" /><defs
     id="defs1" /><g
     inkscape:label="Calque 1"
     inkscape:groupmode="layer"
     id="layer1"
     transform="translate(-57.114971,-72.323192)"><path
       id="path1"
       style="fill:#000000;stroke-width:0.149484"
       d="m 101.65993,72.355009 c -1.13213,-0.05237 -2.344938,-0.03269 -3.299522,0.663764 -1.14495,0.534347 -2.222577,1.302111 -2.799586,2.459046 -1.837689,3.075223 -3.362478,6.326642 -5.013358,9.502904 -1.280567,2.525525 -2.539128,5.059037 -3.792913,7.597235 -1.004265,-0.327993 -2.08963,-0.137322 -3.122775,-0.109739 -1.553305,0.351232 -2.898676,1.328436 -3.876418,2.567537 -2.021129,2.221884 -2.416407,5.294284 -3.454758,8.000174 -2.028324,6.13562 -4.364515,12.21917 -5.400605,18.62561 -1.030087,5.88923 -1.606993,11.8619 -1.715335,17.83928 0.05633,3.53189 0.25068,7.06075 0.509655,10.58242 -0.01381,1.67396 -0.482205,3.31377 -0.686829,4.97332 -1.684537,10.24722 -3.601786,20.45964 -6.049452,30.56242 -2.035177,9.50375 -3.73771,19.08584 -5.49,28.63604 -0.37542,1.9843 -0.538892,4.07031 -0.04486,6.04865 0.554886,1.96408 1.49648,3.97418 3.285647,5.09588 2.004039,1.53316 4.524703,2.16108 6.964448,2.6071 3.372944,0.48723 6.79462,0.59766 10.199497,0.56873 3.840712,-0.1295 7.744453,-0.37427 11.389012,-1.69786 2.510129,-0.91565 4.997111,-2.25408 6.685884,-4.37519 1.440366,-2.04002 1.443589,-4.69732 1.175203,-7.08232 -0.357706,-3.26579 -0.463135,-6.55876 -0.539866,-9.84266 0.06894,-2.02727 0.140252,-4.00011 0.481935,-5.98057 0.306051,-2.0371 1.577696,-3.76257 3.048996,-5.13588 5.13927,-3.71107 10.61701,-7.17723 14.68398,-12.12916 1.62573,-1.99295 2.60889,-4.43806 4.41998,-6.29207 2.08227,-2.39368 4.83517,-4.05651 7.66488,-5.42123 4.82605,-2.74791 9.19831,-6.2005 13.65845,-9.48919 3.30368,-2.66938 5.29343,-7.13869 4.46789,-11.37871 -0.49833,-2.10593 -1.79499,-4.18175 -3.83127,-5.07693 0.27836,-1.93203 -1.01047,-3.56424 -2.07158,-5.02685 -2.24496,-3.39574 -3.73505,-7.24564 -6.13742,-10.53926 -3.17055,-3.78953 -7.3034,-6.6087 -11.41525,-9.27892 -1.47633,-0.87997 -2.90544,-2.10116 -4.71723,-2.10919 -1.68011,-0.0798 -3.37222,0.10125 -5.0149,0.45492 0.8095,-1.16435 1.35305,-2.59546 2.61022,-3.35941 5.97518,-4.59429 11.98765,-9.16166 17.60269,-14.19511 2.07584,-2.111032 3.23189,-4.99701 3.64252,-7.8923 0.11383,-1.788454 0.31775,-3.768385 -0.46302,-5.497394 -0.57947,-1.240729 -1.62634,-2.425607 -3.0546,-2.621746 -2.01271,-0.45469 -4.04779,0.278212 -5.74339,1.338042 -5.26643,3.008083 -10.35057,6.312351 -15.48609,9.531568 -3.1947,2.080537 -6.28091,4.333665 -9.18707,6.80332 1.6468,-4.361105 3.64738,-8.587342 5.19922,-12.981444 0.76327,-3.03546 1.71244,-6.154357 1.356,-9.315207 -0.33413,-2.452008 -1.23313,-5.07362 -3.34582,-6.543773 -1.03105,-0.533358 -2.06208,-1.281374 -3.29219,-1.085847 z m -0.30227,6.372614 c 0.72669,0.596595 0.74592,1.68885 0.81427,2.555586 -0.007,2.313685 -0.73956,4.548462 -1.36881,6.749233 -2.47812,6.416992 -5.460126,12.669018 -7.298195,19.308068 -1.189415,3.86605 -2.042613,7.85434 -2.189688,11.90719 -0.224112,3.26355 -0.330643,6.54313 -0.221147,9.81204 0.324951,1.76258 1.398779,3.57543 3.205383,4.1221 0.869358,0.41884 2.230557,0.67595 2.774576,-0.36331 0.430287,-1.02906 0.06546,-2.17405 0.176836,-3.25436 -0.07275,-4.59592 0.03539,-9.20656 0.618203,-13.76948 0.179809,-0.96076 1.027076,-1.63854 1.584127,-2.40721 4.058615,-4.63634 8.863475,-8.57371 14.021305,-11.92696 4.96065,-3.258251 10.00864,-6.339442 15.08709,-9.412009 0.31258,-0.05854 1.14981,-0.910679 1.00307,-0.256059 -0.25518,1.963223 -1.15914,3.906042 -2.81923,5.061683 -5.71768,4.897785 -11.64151,9.515575 -17.67711,14.013815 -1.49212,2.09734 -2.72177,4.40451 -4.17957,6.49609 -1.91689,2.91879 -4.07376,5.72781 -6.035264,8.63703 -1.181605,1.84337 -1.458053,4.36701 -0.245068,6.26574 0.83115,1.24702 2.368742,1.80645 3.796562,1.96996 1.29184,-0.0662 1.98223,-1.61259 1.56927,-2.74355 -0.33522,-1.11372 0.0302,-2.41302 1.02027,-3.0802 2.99667,-2.22177 6.52358,-4.03184 10.31357,-4.20109 0.71965,-0.0348 1.49773,-0.0536 2.03719,0.51358 3.10473,1.9354 6.14827,4.01854 8.90023,6.44047 1.23132,1.14409 2.44819,2.35729 3.12661,3.92343 1.61056,2.87945 3.06252,5.86115 4.92289,8.59078 -2.58403,0.24663 -4.77984,-1.62722 -6.15184,-3.63229 -0.95414,-1.34139 -1.61986,-2.85479 -2.00443,-4.45276 -0.19884,-0.66066 -0.3989,-1.32096 -0.59596,-1.98216 -1.24801,0.48854 -2.33,1.36922 -3.62364,1.72346 -0.94925,0.0879 -2.10174,-0.0982 -2.52769,-1.07404 -1.41506,-2.19296 -2.23961,-4.69069 -3.30362,-7.05861 -1.47869,2.02847 -2.48889,4.42555 -4.34635,6.15603 -1.48037,1.21827 -3.4515,1.8274 -5.35507,1.54887 -0.815,0.0283 -1.36957,0.78433 -1.36666,1.55843 -0.30062,1.41255 -0.54867,3.04792 -1.73475,4.00876 -1.78053,0.73376 -3.380095,2.16172 -3.841211,4.0871 -0.227041,1.1129 -0.163763,2.27971 -0.01284,3.40009 0.780521,3.10612 3.133541,5.44629 5.209851,7.75472 0.41471,0.44968 0.85224,0.87744 1.30088,1.2929 -2.25969,-0.40499 -4.85363,-0.0512 -6.480509,1.70722 -1.677358,1.82879 -2.253617,4.33665 -2.866636,6.66961 -0.29001,1.2453 -0.205297,2.52572 -0.121292,3.78698 -0.562265,-2.90258 -0.893105,-5.76001 -0.879795,-8.70686 -0.134463,-2.63068 0.316124,-5.11506 0.558477,-7.75486 0.249153,-2.34919 0.496561,-4.69858 0.7468,-7.04766 -0.629859,-0.64416 -1.388857,-1.66436 -2.420387,-1.2469 -0.977274,0.50313 -1.30882,1.65655 -1.975718,2.46463 -2.621431,4.32898 -3.257747,9.53574 -3.156193,14.50934 0.109739,3.69569 0.692796,7.35382 1.377337,10.97971 0.454532,3.4194 0.292641,6.95187 0.299074,10.44351 -0.262696,3.2123 -1.184741,6.42103 -2.883427,9.17413 -0.992399,1.59833 -2.246572,3.10208 -3.734568,4.31765 -1.556859,1.30059 -3.352661,2.31569 -5.213949,3.10362 -0.824163,0.36791 -2.136534,0.33338 -2.42183,1.38051 -0.239997,0.96961 0.05524,2.30858 1.179865,2.54283 1.5743,0.36167 3.193351,0.73615 4.819119,0.46227 3.039597,-0.34497 5.577827,-2.30328 7.554458,-4.5203 0.300841,-0.27715 0.837204,-1.09124 0.555927,-0.21578 -0.78533,4.99612 -0.447124,10.08226 -0.08606,15.10113 0.06857,1.34961 0.339545,2.76305 0.251624,4.0764 -0.06,0.72867 -0.885907,0.98302 -1.377835,1.4011 -2.321625,1.43272 -5.079163,1.93933 -7.747127,2.25955 -3.114656,0.11616 -6.234859,0.0993 -9.351096,0.09 -1.814167,-0.0384 -3.532058,-0.27083 -5.312476,-0.63754 -1.073555,-0.28131 -2.458949,-0.64154 -3.309525,-1.53251 -0.794493,-1.14259 -0.739073,-2.60113 -0.450575,-3.90003 1.379808,-8.1301 2.944574,-16.23311 4.537906,-24.34355 0.999277,-5.23386 2.404761,-10.376 3.428072,-15.60465 1.677034,-8.17213 3.111697,-16.39673 4.391655,-24.6397 0.224745,-1.83761 -0.228032,-3.66858 -0.256061,-5.50794 -0.191442,-3.57335 -0.21991,-7.29304 -0.06177,-10.86809 0.450794,-6.41182 1.278946,-12.83586 3.034064,-19.03146 1.576524,-5.07809 3.420918,-10.0707 4.994737,-15.14769 0.276002,-0.66643 0.618672,-1.42945 1.188271,-1.85177 1.376709,1.60277 1.115204,3.87728 1.078572,5.84089 -0.161669,3.50294 -1.249592,6.87104 -2.274131,10.19665 -0.428522,1.8852 -0.496174,3.83212 -0.788907,5.74212 -0.399895,3.50588 -0.954788,7.02742 -0.696238,10.5651 0.156322,2.69205 0.264936,5.40184 0.671047,8.06656 0.50874,2.29234 1.830356,4.30087 3.428071,5.98498 0.439737,0.51556 0.878898,1.03159 1.319309,1.54657 0.903164,-0.81647 2.194176,-1.79007 1.886756,-3.18053 -0.4717,-4.03914 -0.908024,-8.12841 -1.087773,-12.17151 -0.0561,-2.47984 -0.07148,-4.8641 0.304113,-7.26921 0.365148,-2.79909 0.548816,-5.58353 1.171352,-8.31084 1.128593,-3.55931 2.063977,-7.22616 2.270149,-10.96506 0.02552,-2.42122 0.121013,-4.92373 -0.792262,-7.216279 0.167871,-0.767596 0.711153,-1.491859 1.021503,-2.24301 2.745216,-5.497912 5.417457,-11.041583 8.412672,-16.407479 0.14784,-0.226396 0.40289,-0.394565 0.68115,-0.374948 z m 13.67513,60.199077 c 1.20458,1.52631 3.06388,2.43036 4.93958,2.80587 0.63537,0.1043 1.28318,0.14734 1.92591,0.10125 0.84853,1.49832 1.79,2.9517 3.03036,4.15856 0.13839,0.35808 1.10264,0.80875 0.76822,1.06081 -3.45175,1.77497 -6.55995,4.14151 -10.00699,5.92024 -1.39119,0.68593 -3.22356,1.2354 -4.57306,0.15783 -1.49513,-1.21236 -2.74875,-2.69817 -4.04176,-4.11766 -0.63245,-0.76392 -1.22154,-1.58241 -1.59541,-2.50717 1.37976,-0.44181 2.36673,-1.53755 3.23768,-2.6404 0.67412,-0.81408 1.10793,-1.79719 1.47345,-2.78114 1.7277,-0.39837 3.38267,-1.14521 4.79582,-2.21982 z m 22.33689,11.28783 c 0.75813,-0.0813 1.6148,0.33763 1.6384,1.18595 0.0547,2.24791 -1.40348,4.30875 -3.30375,5.41192 -4.72654,3.42661 -9.33955,7.1041 -14.63333,9.64134 -2.98315,1.67384 -5.57678,4.0247 -7.67844,6.71333 -1.30084,1.66778 -2.21857,3.6072 -3.53945,5.25274 -2.81285,3.32019 -6.47729,5.86793 -9.999202,8.42305 -1.269109,0.87862 -2.732262,2.01828 -3.858102,2.76829 1.021365,-3.30434 1.389336,-6.779 1.282857,-10.22852 -0.0049,-2.95892 -0.08537,-5.93072 -0.555108,-8.8566 0.543733,2.04503 1.671698,3.9307 3.236361,5.35801 1.218754,0.57632 2.880194,-0.54149 2.538654,-1.92372 0.0166,-2.33234 -0.12949,-4.68404 0.10398,-7.00349 0.55822,-2.70663 1.62186,-5.38233 3.55204,-7.4098 0.38084,-0.46617 0.76167,-0.93234 1.14251,-1.39851 1.11542,0.78337 2.30016,1.57978 3.63488,1.91564 1.68812,0.072 3.53865,0.31496 5.18188,-0.39402 3.91112,-1.20443 7.0732,-3.92374 10.60508,-5.88342 3.19656,-1.85956 6.83806,-3.48661 10.65074,-3.57219 z"
       inkscape:export-filename="pc.svg"
       inkscape:export-xdpi="98.01963"
       inkscape:export-ydpi="98.01963" /></g></svg>
