<?xml version="1.0" encoding="UTF-8" standalone="no"?>
<!-- Created with Inkscape (http://www.inkscape.org/) -->

<svg
   width="164.29131mm"
   height="159.03722mm"
   viewBox="0 0 164.29131 159.03722"
   version="1.1"
   id="svg1"
   xml:space="preserve"
   inkscape:export-filename="po.svg"
   inkscape:export-xdpi="96"
   inkscape:export-ydpi="96"
   sodipodi:docname="po.svg"
   inkscape:version="1.3-dev (77bc73e, 2022-05-18)"
   xmlns:inkscape="http://www.inkscape.org/namespaces/inkscape"
   xmlns:sodipodi="http://sodipodi.sourceforge.net/DTD/sodipodi-0.dtd"
   xmlns="http://www.w3.org/2000/svg"
   xmlns:svg="http://www.w3.org/2000/svg"><sodipodi:namedview
     id="namedview1"
     pagecolor="#ffffff"
     bordercolor="#000000"
     borderopacity="0.25"
     inkscape:showpageshadow="2"
     inkscape:pageopacity="0.0"
     inkscape:pagecheckerboard="0"
     inkscape:deskcolor="#d1d1d1"
     inkscape:document-units="mm"
     showgrid="false"
     inkscape:zoom="1.1057599"
     inkscape:cx="436.80369"
     inkscape:cy="396.10769"
     inkscape:window-width="1792"
     inkscape:window-height="1092"
     inkscape:window-x="0"
     inkscape:window-y="28"
     inkscape:window-maximized="0"
     inkscape:current-layer="layer1" /><defs
     id="defs1" /><g
     inkscape:label="Calque 1"
     inkscape:groupmode="layer"
     id="layer1"
     transform="translate(-31.12206,-12.523046)"><path
       id="path1"
       style="fill:#000000;stroke-width:0.199215"
       d="m 57.728321,12.533002 c -2.191372,0.404489 -3.540557,2.394087 -4.691933,4.119532 -2.559418,4.284716 -2.132604,10.032547 0.811424,14.02051 1.697617,2.881558 3.172122,5.893857 5.105778,8.632077 1.399161,2.130781 2.273218,4.531079 3.297176,6.848405 0.710195,1.552659 1.501868,3.067202 2.350546,4.548507 -3.997093,-0.508419 -8.0223,-0.675973 -11.985343,-1.391328 -3.177384,-1.03212 -6.151759,-2.58978 -9.132298,-4.078961 -2.508147,-1.292435 -4.941146,-2.755581 -7.52447,-3.885888 -2.01498,-0.564581 -4.240459,0.973266 -4.50332,3.036472 -0.458455,2.054775 -0.367827,4.193935 -0.181874,6.275671 0.658272,4.497567 3.708567,8.381192 7.589744,10.62266 3.737269,2.297305 8.068573,3.26203 12.23427,4.449671 1.914109,0.897813 3.447084,2.426972 5.340699,3.361817 2.980291,1.648932 6.459338,2.367436 9.847707,1.986079 0.827398,-0.104593 1.251822,0.741037 1.881954,1.113859 0.685601,0.357248 -0.331606,0.383081 -0.667296,0.532103 -3.592182,1.019348 -7.392147,1.765651 -10.588334,3.809952 -2.808726,1.871607 -4.827219,4.892427 -5.363798,8.236626 -0.713884,3.67966 -0.585109,7.441886 -0.843009,11.147667 -0.138634,3.255572 -0.292475,6.476737 -1.51047,9.568427 -1.602869,3.79468 -3.686824,7.38823 -4.985312,11.31268 -0.195967,1.69664 1.075788,3.16763 2.358642,4.10656 2.396383,1.70949 5.616057,1.85391 8.325117,0.85465 5.091662,-1.6634 9.492935,-5.90349 10.642562,-11.22787 0.48302,-1.8333 0.465234,-3.80058 1.38487,-5.50522 1.189266,-2.29964 1.831589,-4.82569 2.223104,-7.372413 0.220389,-1.387672 0.393283,-2.781241 0.578095,-4.17411 5.213746,-1.205683 10.416066,-2.481506 15.511134,-4.127623 3.115893,2.209122 6.457867,4.15785 9.240822,6.795379 1.795244,2.150633 3.552531,4.362927 5.762982,6.112427 1.76885,1.52121 3.64907,2.90499 5.51753,4.29955 0.13681,2.34437 0.5652,4.70039 1.52776,6.85385 -2.93843,1.42335 -5.94276,2.89114 -9.119431,3.55903 -7.195451,1.85131 -14.367097,4.77392 -19.819692,9.96564 -2.996179,2.8794 -5.630317,6.30607 -6.930618,10.29532 -0.797723,2.9357 -0.07851,6.24153 1.973611,8.50842 1.343351,1.61236 2.926607,3.16029 4.901294,3.94912 1.456559,0.41086 2.871115,-0.42909 3.908738,-1.38379 4.222904,-3.43312 8.561549,-6.8732 13.63303,-8.97443 2.654532,-1.05597 5.449988,-2.31256 8.378588,-1.8898 9.84082,0.73104 19.74701,2.17894 29.61086,0.97924 5.87108,-0.77367 11.58911,-2.84965 16.51267,-6.15301 9.03608,12.49393 17.83767,25.15867 26.90613,37.62723 0.86945,1.16369 2.41931,2.07229 3.87873,1.47223 1.77276,-0.64175 2.50166,-3.12637 1.28833,-4.59487 -1.47251,-2.52781 -3.38405,-4.71444 -4.9801,-7.14573 -7.50861,-10.5846 -15.05981,-21.13995 -22.52239,-31.75562 -0.62566,-0.552 -0.0899,-1.40927 -0.02,-2.09717 0.2028,-1.2256 0.86796,-2.50959 0.37526,-3.74472 -0.71618,-1.8936 -3.45014,-2.35346 -4.86482,-0.97207 -1.27846,1.16203 -1.384,2.98511 -1.82823,4.54449 -0.19324,0.78553 -1.11284,0.9707 -1.63545,1.49959 -3.68698,2.62357 -8.04566,4.20976 -12.4875,4.97943 -6.36885,1.13738 -12.86065,0.64777 -19.26557,0.1158 -4.45008,-0.37459 -8.89867,-0.90392 -13.36371,-1.0015 -3.148818,0.22282 -6.073226,1.55498 -8.961686,2.72357 -4.928615,2.15938 -9.399069,5.31967 -13.48572,8.73329 -0.431311,0.52213 -0.842987,-0.37933 -1.208002,-0.62895 -0.895284,-0.86084 -1.232009,-2.19125 -0.810533,-3.36668 0.616806,-2.03894 2.073847,-3.67542 3.325531,-5.35041 2.601962,-3.11526 5.951935,-5.53757 9.616408,-7.17126 4.449763,-2.10615 9.289699,-3.15381 13.947282,-4.67089 3.39451,-1.35315 6.61544,-3.09896 9.97931,-4.52311 3.10779,-1.53411 6.00379,-3.80908 7.65602,-6.90745 0.57839,-1.3209 0.11692,-3.07593 -1.2559,-3.69303 -1.51455,-0.84346 -3.62582,-0.21635 -4.38991,1.35162 -0.21996,0.38219 -0.67963,-0.28411 -1.07387,-0.24214 -1.11566,-0.28777 -2.40762,0.15031 -3.04227,1.13046 -0.39477,-1.78693 -0.33022,-3.53644 -0.66829,-5.3419 -0.23959,-1.36627 -0.17559,-2.78015 -0.48223,-4.128889 -0.46925,-1.623009 -2.34666,-2.828797 -3.98411,-2.109911 -0.67082,0.26698 -1.22276,0.799613 -1.54308,1.443522 -0.77648,-0.851964 -1.85786,-1.314741 -2.61465,-2.192021 -1.55327,-1.429491 -2.78738,-3.154047 -4.179569,-4.725338 -2.581354,-2.525584 -5.74903,-4.320409 -8.665848,-6.415717 -1.299691,-0.832098 -2.589055,-1.865909 -4.142313,-2.134027 -1.725321,-0.102217 -3.203104,0.884007 -4.824394,1.232085 -4.425385,1.350384 -8.936126,2.491457 -13.466568,3.395217 -1.287489,-1.065165 -3.536764,-1.203148 -4.556005,0.299962 -0.999473,1.361611 -0.585211,3.368541 0.585369,4.491988 -0.245124,2.932464 -0.55203,6.06719 -1.700031,8.906429 -0.191473,0.36351 -0.234343,0.99388 -0.775769,0.77768 -1.877697,-0.10223 -3.624872,1.75314 -3.191319,3.6354 0.190435,1.02002 0.913857,1.90246 1.834326,2.36201 -0.328092,3.62518 -3.193539,6.61048 -6.497752,7.85704 -0.741999,0.25071 -1.532397,0.39113 -2.316525,0.31781 2.048983,-4.82242 4.967098,-9.44003 5.48441,-14.76641 0.6412,-5.314442 0.256866,-10.750548 1.173735,-15.962146 0.456151,-2.002833 1.874835,-3.77476 3.813322,-4.511725 3.277072,-1.522436 6.904913,-2.001615 10.296836,-3.1987 2.827904,-0.949655 5.632805,-1.975561 8.484984,-2.850664 1.220357,-0.446555 2.299325,-1.611668 2.111675,-2.988507 -0.07256,-1.646799 -1.664838,-2.98013 -3.299022,-2.791582 -1.08852,-0.02826 -2.114572,0.644138 -3.191698,0.485013 -1.396637,-0.634945 -2.689547,-1.478359 -3.89726,-2.420286 0.178167,-2.240818 -2.5841,-3.964206 -4.538875,-2.871697 -0.741428,0.375647 -1.523988,0.723039 -2.373438,0.60368 -1.909359,0.105187 -3.846527,-0.29792 -5.491364,-1.290361 -0.640986,-0.342638 -1.291633,-0.701136 -1.876445,-1.120617 0.132893,-1.73799 -1.539756,-3.417268 -3.302748,-3.04534 -1.015738,0.114968 -2.049119,0.152704 -3.018961,-0.217329 -3.748677,-0.91393 -7.576818,-1.912868 -10.709525,-4.291878 -1.888528,-1.543219 -3.216338,-3.82791 -3.413521,-6.277586 4.77709,2.494093 9.508196,5.248446 14.744945,6.662838 3.655661,0.672674 7.390993,0.696444 11.066726,1.229252 2.521457,0.311082 5.11155,0.526196 7.496436,1.446584 3.054737,1.492292 5.900996,3.36944 8.826372,5.093718 1.892003,1.133665 3.751309,2.386086 5.808945,3.190769 1.805365,0.455575 3.922075,-1.175122 3.537729,-3.103 -0.260665,-1.846014 -2.13021,-2.7038 -3.50397,-3.645341 -3.943459,-2.652204 -8.181102,-4.84537 -12.157022,-7.437304 -1.287945,-1.411925 -2.140333,-3.149379 -3.180915,-4.738848 -1.532121,-2.571261 -2.623501,-5.36628 -3.798412,-8.107381 -1.235615,-2.459078 -2.96615,-4.646036 -4.2742,-7.048175 0.693281,-1.547571 -0.182147,-3.433899 -1.659601,-4.152043 -2.207179,-1.348957 -3.075355,-4.20391 -2.482106,-6.643465 0.07082,-0.757079 0.337033,-0.592187 0.595751,0.01395 1.8904,3.213632 3.472163,6.600096 5.492623,9.738964 3.230888,5.350803 6.99633,10.347937 10.598353,15.448059 1.669207,2.218085 3.401925,4.410945 5.398518,6.345084 2.565473,2.321567 5.513199,4.181072 8.022386,6.571841 3.835383,3.436973 7.69805,6.856528 11.814472,9.9564 0.965973,0.88168 2.436663,1.307522 3.644773,0.670265 0.71239,-0.335122 1.22926,-1.021969 1.41328,-1.780665 9.63426,7.254862 19.03096,14.820604 28.82455,21.860916 3.40714,2.45168 6.79586,4.943793 10.38022,7.132002 5.9813,3.465345 12.48456,6.080335 17.97142,10.358875 9.80903,7.02579 19.01031,14.90458 28.58878,22.2483 1.12287,0.86794 2.84128,1.28007 4.02243,0.28767 1.34213,-0.93815 1.34523,-2.97715 0.29665,-4.13549 -1.26617,-1.32781 -2.75789,-2.42442 -4.14748,-3.62029 -6.75574,-5.48417 -13.54392,-10.92899 -20.45742,-16.21315 -4.61983,-3.43146 -9.24002,-6.933893 -14.40943,-9.510078 -4.48231,-2.347414 -9.08,-4.442826 -13.14155,-7.509102 -12.77543,-8.853578 -24.79477,-18.730685 -37.2717,-27.985577 -2.70748,-1.784171 -5.701313,-3.109657 -8.293345,-5.072951 -1.060483,-2.319445 -1.828982,-4.763556 -2.801351,-7.121268 -1.019359,-2.661475 -2.334106,-5.190504 -3.569132,-7.753387 -2.179873,-4.798635 -3.77319,-9.804326 -5.876461,-14.646659 -0.855838,-1.423877 -2.774093,-1.88071 -4.265466,-1.261644 -3.36385,0.943879 -5.48116,4.492645 -5.363089,7.884211 -7.94e-4,2.089091 0.706532,4.094482 1.492006,6.003442 C 73.448939,35.091883 70.367206,30.758854 67.731344,26.144572 65.120629,21.79449 63.102126,16.976943 59.629381,13.185837 59.106208,12.746221 58.416895,12.465668 57.728301,12.532998 Z M 81.55788,35.359373 c 0.09065,0.292546 0.538018,1.296731 0.398213,1.14486 -0.237317,-0.604902 -0.52886,-1.195129 -0.658582,-1.837903 0.08678,0.231014 0.173579,0.462028 0.260369,0.693043 z m 2.496486,6.335021 c 1.553975,3.704316 3.575646,7.217733 4.933619,10.994871 -1.276377,-1.08381 -2.698077,-2.080833 -3.878741,-3.223987 1.231894,-1.016448 1.285424,-3.014504 0.222251,-4.174653 -0.60996,-0.792937 -1.505918,-1.447033 -1.635157,-2.506763 -0.04484,-0.393945 -0.557147,-0.903917 -0.04975,-1.181363 0.263257,-0.41245 0.232556,-0.351382 0.407786,0.0919 z"
       inkscape:export-filename="po.svg"
       inkscape:export-xdpi="96"
       inkscape:export-ydpi="96" /></g></svg>
