<?xml version="1.0" encoding="UTF-8" standalone="no"?>
<!-- Created with Inkscape (http://www.inkscape.org/) -->

<svg
   width="107.14753mm"
   height="42.271294mm"
   viewBox="0 0 107.14753 42.271294"
   version="1.1"
   id="svg1"
   xml:space="preserve"
   inkscape:export-filename="rt.svg"
   inkscape:export-xdpi="105.62806"
   inkscape:export-ydpi="105.62806"
   sodipodi:docname="rt.svg"
   inkscape:version="1.3-dev (77bc73e, 2022-05-18)"
   xmlns:inkscape="http://www.inkscape.org/namespaces/inkscape"
   xmlns:sodipodi="http://sodipodi.sourceforge.net/DTD/sodipodi-0.dtd"
   xmlns="http://www.w3.org/2000/svg"
   xmlns:svg="http://www.w3.org/2000/svg"><sodipodi:namedview
     id="namedview1"
     pagecolor="#ffffff"
     bordercolor="#000000"
     borderopacity="0.25"
     inkscape:showpageshadow="2"
     inkscape:pageopacity="0.0"
     inkscape:pagecheckerboard="0"
     inkscape:deskcolor="#d1d1d1"
     inkscape:document-units="mm"
     showgrid="false"
     inkscape:zoom="1.0998532"
     inkscape:cx="398.23498"
     inkscape:cy="480.06409"
     inkscape:window-width="1792"
     inkscape:window-height="1092"
     inkscape:window-x="0"
     inkscape:window-y="28"
     inkscape:window-maximized="0"
     inkscape:current-layer="layer1" /><defs
     id="defs1" /><g
     inkscape:label="Calque 1"
     inkscape:groupmode="layer"
     id="layer1"
     transform="translate(-31.154601,-91.466024)"><path
       id="path1"
       style="fill:#000000;stroke-width:0.823344"
       d="m 123.60181,91.466612 c -1.13392,0.0491 -2.0309,0.859631 -2.97562,1.395037 -3.52178,2.314344 -6.27043,5.596884 -9.7787,7.932361 -2.13941,1.63381 -4.01605,3.60837 -6.27823,5.07971 -1.73604,0.90298 -3.74849,0.42039 -5.604578,0.31771 -8.835078,-0.75675 -17.398548,-3.03137 -25.840352,-5.70176 -4.513037,-1.384306 -9.100245,-2.80571 -13.852806,-2.974431 -3.205608,-0.06377 -6.384052,0.767448 -9.231156,2.218281 -3.824567,1.88514 -7.168175,4.61106 -11.041553,6.40907 -1.753523,0.90859 -3.656425,1.46188 -5.448949,2.27686 -0.767798,0.38919 -1.654651,0.79511 -2.07149,1.58916 -0.325475,0.87993 0.55656,1.8104 1.450942,1.6717 1.831255,-0.022 3.529428,-0.83383 5.200084,-1.49643 4.476054,-1.90445 8.614861,-4.48534 12.731703,-7.05281 2.240054,-1.29564 4.748009,-2.21962 7.38365,-2.19683 3.258708,-0.0138 6.490043,0.79347 9.645533,1.60091 6.285569,1.69332 12.48598,3.74051 18.869523,5.06526 4.232931,0.90089 8.515644,1.60698 12.827057,1.99089 3.391592,0.0669 6.738712,-0.63756 10.118772,-0.38625 1.03859,0.1426 2.07854,0.50024 2.94167,1.10044 0.47618,0.33082 -0.11695,0.77289 -0.41612,0.96311 -2.18414,1.39644 -4.87394,1.98562 -6.76643,3.83314 -1.58075,1.34478 -3.68618,1.82945 -5.668595,2.10193 -4.477822,0.69696 -8.976828,0.83859 -13.50043,0.88099 -3.159502,-0.0174 -6.276925,-0.37314 -9.30087,-1.18362 -1.407743,-0.34771 -2.775161,-0.8852 -4.211953,-1.09761 -0.749491,-0.056 -1.477449,0.65912 -1.253361,1.42081 0.220196,1.41091 1.6569,2.13375 2.877831,2.54177 3.446106,1.11822 7.104096,1.27116 10.695969,1.41864 4.556699,0.10376 9.123824,6.7e-4 13.664488,-0.39146 2.854541,-0.30591 5.663611,-1.20071 8.070491,-2.78609 3.99222,-2.47683 7.54386,-5.57583 11.40903,-8.23728 4.04767,-2.8668 8.17618,-5.65424 12.589,-7.93326 0.72058,-0.36064 1.47495,-0.70918 2.28695,-0.78423 0.21385,1.05811 -0.15058,2.15142 -0.82936,2.97513 -1.71164,2.17482 -3.97739,3.85443 -6.15204,5.55852 -7.49115,5.6837 -15.15885,11.13827 -22.99897,16.33131 -2.50479,1.62862 -5.111096,3.19433 -7.671718,4.77143 -5.688475,-0.29686 -11.383226,-0.45938 -17.03051,-1.15183 -4.1375,-0.46054 -8.247887,-1.12384 -12.351709,-1.85225 -8.102538,-1.23636 -16.3833,-1.6336 -24.533234,-0.61759 -2.976761,0.41695 -5.932878,1.03042 -8.815923,1.8801 -0.803386,0.20978 -1.7386,0.8547 -1.563994,1.79947 0.114436,0.90873 1.003488,1.61088 1.917918,1.44878 2.085333,-0.0753 3.966806,-1.14435 6.031211,-1.36248 4.922507,-0.85334 9.924774,-1.1795 14.949812,-1.09921 6.944603,0.18431 13.786867,1.68721 20.633542,2.84903 5.697374,0.86688 11.468937,1.10554 17.225745,1.11158 1.625314,0.0144 3.250645,0.0278 4.875959,0.043 5.426861,-3.24389 10.845731,-6.50603 16.017541,-10.14955 6.5642,-4.5486 13.00522,-9.30051 19.03517,-14.5437 2.12339,-1.87783 4.31564,-3.85838 5.46543,-6.51153 0.75157,-1.68135 1.22555,-3.599709 0.83248,-5.432673 -0.23786,-1.008305 -2.24881,-1.65105 -3.93241,-2.322184 -1.8126,-0.905591 -1.74407,-0.835201 -3.85742,-0.948387 -1.19891,-0.167074 -2.45824,-0.903136 -3.59957,-1.421272 -1.03442,-0.370131 -2.03851,-0.961057 -3.16945,-0.941523 z m 1.19749,2.897411 c 1.1581,0.251974 2.20375,0.846737 3.31134,1.250313 -1.81463,0.79829 -3.88193,0.98585 -5.54001,2.14233 -4.09114,2.475764 -7.41989,6.026804 -11.60116,8.370374 -0.63213,0.37541 -1.28206,0.72261 -1.95604,1.017 2.02098,-2.10014 3.5821,-4.73164 6.18768,-6.19441 3.19637,-2.110793 5.78483,-5.162446 9.41123,-6.592743 0.0623,-0.0094 0.12465,0.008 0.18696,0.0071 z m 9.74132,3.39269 c 0.26845,0.04583 0.63247,0.188461 0.76218,0.373953 -1.09229,-0.249742 -2.2701,-0.466049 -3.34204,-0.0074 -1.7904,0.713963 -2.6615,2.658464 -4.39104,3.476614 -4.20758,2.33689 -7.96606,5.41125 -12.04784,7.92023 -0.47514,-0.75483 -1.52483,-0.824 -2.17948,-1.2917 3.98007,-3.00164 7.52023,-6.59127 12.00173,-8.874169 1.91925,-0.893195 4.06512,-1.118108 6.1417,-1.39378 1.01355,-0.08945 2.03707,-0.271583 3.05479,-0.204123 z"
       sodipodi:nodetypes="scccccccccccccccccccccccccccccccccccccccccccccccccccccccssccccccccccccccccccc"
       inkscape:export-filename="rt.svg"
       inkscape:export-xdpi="133.24901"
       inkscape:export-ydpi="133.24901" /></g></svg>
