<?xml version="1.0" encoding="UTF-8" standalone="no"?>
<!-- Created with Inkscape (http://www.inkscape.org/) -->

<svg
   width="210.78818mm"
   height="105.44494mm"
   viewBox="0 0 210.78818 105.44494"
   version="1.1"
   id="svg1"
   inkscape:version="1.3-dev (77bc73e, 2022-05-18)"
   sodipodi:docname="wp.svg"
   inkscape:export-filename="../myo-training/public/images/wp.svg"
   inkscape:export-xdpi="144.7713"
   inkscape:export-ydpi="144.7713"
   xmlns:inkscape="http://www.inkscape.org/namespaces/inkscape"
   xmlns:sodipodi="http://sodipodi.sourceforge.net/DTD/sodipodi-0.dtd"
   xmlns="http://www.w3.org/2000/svg"
   xmlns:svg="http://www.w3.org/2000/svg">
  <sodipodi:namedview
     id="namedview1"
     pagecolor="#ffffff"
     bordercolor="#000000"
     borderopacity="0.25"
     inkscape:showpageshadow="2"
     inkscape:pageopacity="0.0"
     inkscape:pagecheckerboard="0"
     inkscape:deskcolor="#d1d1d1"
     inkscape:document-units="mm"
     showgrid="false"
     inkscape:zoom="0.67730849"
     inkscape:cx="410.44812"
     inkscape:cy="388.30164"
     inkscape:window-width="1792"
     inkscape:window-height="1092"
     inkscape:window-x="0"
     inkscape:window-y="28"
     inkscape:window-maximized="0"
     inkscape:current-layer="layer1" />
  <defs
     id="defs1" />
  <g
     inkscape:label="Calque 1"
     inkscape:groupmode="layer"
     id="layer1"
     transform="translate(1.0927118,-78.876623)">
    <path
       id="path1"
       style="fill:#000000;stroke-width:0.690155"
       d="m 28.418101,78.895662 c -3.789977,0.162494 -7.428867,1.975286 -9.999121,4.738741 -6.060207,-2.869916 -13.4300013,-0.06991 -17.57685732,4.806539 -1.307862,1.172886 -2.24128298,2.705407 -1.841329,4.51828 0.144877,14.410578 -0.31785498,28.844058 0.433672,43.238318 0.391843,5.14596 2.86528102,9.79457 5.93531102,13.83319 1.431651,2.39111 3.986803,4.50291 3.610136,7.53462 0.264561,6.88526 -0.222651,14.476 3.8382063,20.43755 3.841205,4.84322 10.494338,5.43528 16.221488,5.63701 10.443384,0.59156 21.176516,1.58964 31.421129,-1.0925 5.433949,-1.60406 10.026515,-6.01934 11.199123,-11.65396 1.524695,-5.5353 1.036409,-11.30069 1.751584,-16.88626 7.047555,-8.68578 13.039245,-18.80012 14.225875,-30.12825 0.80397,-6.72899 -0.46366,-14.59894 -6.07764,-19.02484 -1.09844,-1.04969 -2.91317,-1.56844 -3.755517,-2.61721 C 78.033558,96.229944 77.381239,89.44208 72.654359,85.148073 68.649187,81.424611 62.213567,80.91242 57.520434,83.612438 52.734144,77.985928 43.562477,77.40161 37.857141,81.94317 35.245204,79.808729 31.784544,78.725948 28.418101,78.895662 Z m 0.28551,9.224895 c 3.502329,1.324054 4.294465,5.653493 4.650343,8.949462 0.450261,5.249131 0.904622,10.561401 0.571625,15.814981 -1.288933,2.1711 -4.901148,2.30301 -6.715504,0.77974 -0.918791,-2.2298 -0.526163,-4.84143 -0.933468,-7.22068 -0.328239,-5.32838 -0.811338,-10.869394 -0.258089,-16.214957 0.624691,-0.932457 1.449579,-2.087978 2.685093,-2.108546 z m 19.970828,0.955423 c 2.399124,0.881486 1.467995,4.073321 1.807125,6.038795 -0.247938,1.130014 0.86925,3.850658 -0.843817,3.597634 -2.065247,-0.03797 -4.197658,0.02952 -6.135868,0.818453 -0.296213,-3.141932 -1.034031,-6.721066 0.620505,-9.581803 1.275536,-0.993153 3.031107,-0.821013 4.552055,-0.873079 z m -35.367594,2.163482 c 2.406461,1.764376 1.991411,5.238449 2.375515,7.881612 0.169252,3.784816 0.962301,7.646746 0.560102,11.394856 -0.769116,1.55584 -3.313504,3.89802 -4.808072,2.10002 0.514798,-1.69198 -0.847289,-3.13308 -1.9307543,-4.04614 -1.255707,-5.30432 -1.309795,-11.726473 2.2437363,-16.36393 0.420975,-0.43748 0.91318,-0.937574 1.559473,-0.966418 z m 51.209143,0.631469 c 2.80635,0.02248 2.983139,3.590857 3.11194,5.69575 -0.17153,1.020818 0.260315,2.463459 -0.0314,3.227119 -2.033994,-0.21367 -4.498535,0.26933 -6.215822,-0.796188 -0.354018,-2.445692 -0.265953,-4.967345 0.25809,-7.319529 0.729245,-0.735294 1.911411,-0.740128 2.877264,-0.807152 z M 50.568842,108.89304 c 8.097461,1.20567 16.457316,1.13805 24.325197,3.59224 2.468279,0.59638 3.1915,3.22503 3.054066,5.46895 0.09568,6.92849 -2.427393,13.62068 -5.404266,19.77035 -2.797277,5.38726 -7.342088,9.7967 -9.159003,15.68957 -14.961181,0 -29.922335,0 -44.883497,0 -1.853859,-7.23676 -9.2295983,-12.11499 -9.2941233,-19.94468 -0.320866,-3.83037 -0.41037,-7.67628 -0.424987,-11.5188 3.7405233,1.16641 8.0540243,0.41482 11.2291293,-1.60886 3.577743,4.36065 10.189081,5.39565 15.385809,3.63506 1.409382,-0.37216 2.904144,-1.46644 3.953529,-2.01522 1.468363,1.21191 3.067338,2.26443 4.788164,3.08045 -3.031906,5.70485 -4.371354,12.34819 -3.795796,18.7674 0.568758,3.08573 4.424973,5.67646 7.233155,3.61944 3.153096,-3.01215 2.536263,-7.77567 3.432054,-11.68582 0.477261,-2.49203 0.623564,-5.78719 3.043157,-7.17118 4.215545,-1.21491 8.502406,1.75517 12.710387,0.24264 3.530515,-1.24919 3.573472,-6.60471 0.413077,-8.30318 -4.641813,-2.34983 -10.032966,-2.4489 -15.008816,-3.74392 -2.342764,-0.63523 -4.960693,-1.27362 -6.681932,-3.06416 -0.85924,-2.01989 0.891171,-4.73449 2.880391,-5.16125 0.734757,0.11694 1.469514,0.23419 2.204305,0.35111 z m -9.510463,54.61358 c 7.24268,0 14.485307,0 21.727952,0 -0.287688,2.99116 0.215621,6.97612 -2.679613,8.82956 -3.23147,1.20137 -6.80053,0.70833 -10.184169,1.00424 -9.367718,0.20325 -18.701011,0.34569 -27.94542,-0.80657 -3.359418,-1.57956 -2.77661,-5.94855 -2.877272,-9.02723 7.319508,0 14.639035,0 21.958522,0 z" />
    <path
       id="path2"
       style="fill:#000000;stroke-width:0.772488"
       d="m 144.66603,78.89308 c -6.47013,0.242885 -10.95331,6.38287 -11.97512,12.32301 -0.92334,4.068787 -0.7876,8.266573 -0.99792,12.40844 -5.34609,2.51763 -8.57867,8.27208 -8.63275,14.09627 -0.58803,10.43721 3.90966,20.40432 9.33415,29.05973 1.58782,2.59801 3.68342,4.96893 5.15772,7.56188 0.64891,7.47824 -0.21305,15.76241 3.36742,22.75224 3.41114,5.32841 10.29998,6.4746 16.15301,6.42554 10.06231,0.30893 20.23902,0.82794 30.21711,-0.76655 4.97838,-0.90157 9.72688,-4.33853 10.87961,-9.46877 2.0765,-6.36746 0.8046,-13.14459 2.63397,-19.4952 3.11489,-5.16113 7.89813,-9.87011 8.08945,-16.27338 1.10382,-10.62932 0.58931,-21.34173 0.79463,-32.00995 0.003,-5.0254 0.13246,-10.14193 -0.76059,-15.082932 -2.63108,-5.544467 -9.66373,-7.760317 -15.37375,-6.62624 -1.66624,1.125462 -2.55603,-1.083811 -3.9183,-1.732364 -4.8947,-3.645566 -12.42417,-3.950506 -17.20351,0.06153 -4.81203,-4.027606 -12.12062,-3.583358 -17.113,-0.119749 -1.19005,0.156664 -2.25502,-1.267249 -3.48363,-1.562837 -2.2308,-1.057069 -4.68909,-1.677965 -7.1685,-1.550692 z m 1.28874,10.754783 c 1.78099,0.06218 4.05367,1.066924 3.82634,3.176251 0.77412,3.495546 5.64383,5.753974 8.33146,2.866771 1.66009,-1.244353 1.86518,-3.53534 2.52162,-5.218136 2.31619,-1.61252 6.67247,-0.981906 6.96701,2.311453 0.58045,3.552216 5.38545,5.621542 8.07465,2.94817 1.52188,-1.091509 1.43887,-3.068603 2.13271,-4.55625 1.89157,-2.445291 7.2302,-1.845536 7.34472,1.653686 0.34809,2.743941 3.19294,4.772042 5.87351,3.797845 2.66545,-0.591871 4.39938,-4.003476 7.39035,-2.942476 2.02447,1.692343 1.41853,4.755164 1.89293,7.111463 0.76764,10.96157 -0.32236,21.91398 -2.08111,32.70291 -0.73934,4.56813 -2.06917,9.52148 -5.03047,13.34946 -1.31822,2.16296 -2.44701,4.46813 -3.1012,6.9227 -14.15723,0 -28.31447,0 -42.4717,0 -2.30513,-8.20086 -9.22404,-14.05174 -11.85556,-22.12497 -1.68,-4.30668 -2.9229,-8.91662 -2.5887,-13.57795 1.83134,3.21531 7.06511,2.76201 8.35406,-0.68999 1.45288,-3.89741 0.85992,-8.19122 1.057,-12.2728 0.075,-4.8878 -0.25752,-9.873265 0.54539,-14.688314 0.70207,-0.742438 1.85848,-0.806262 2.81699,-0.769823 z m 22.91808,74.171517 c 6.91324,0 13.82649,0 20.73974,0 -0.38095,2.95582 -0.0781,6.8672 -2.91394,8.67338 -3.3907,0.97283 -7.00842,0.56933 -10.49765,0.87893 -8.04505,0.1964 -16.18784,0.64278 -24.16481,-0.53839 -2.42473,-0.52013 -3.6616,-2.87629 -3.67552,-5.18577 0.22561,-1.24904 -1.3799,-4.34024 0.83194,-3.82815 6.56008,0 13.12016,0 19.68024,0 z"
       inkscape:export-filename="../myo-training/public/images/wp.svg"
       inkscape:export-xdpi="144.7713"
       inkscape:export-ydpi="144.7713" />
    <path
       id="rect2"
       style="fill:#000000;fill-opacity:1;stroke:#000000;stroke-width:1.96069"
       d="m 111.23887,161.60815 0.0272,3.48307 H 84.422438 v 7.5492 h 26.902942 l 0.0306,3.96978 6.46686,-3.80149 6.46685,-3.80079 -6.52551,-3.70022 z" />
  </g>
</svg>
