<?xml version="1.0" encoding="UTF-8" standalone="no"?>
<!-- Created with Inkscape (http://www.inkscape.org/) -->

<svg
   width="208.84825mm"
   height="103.78487mm"
   viewBox="0 0 208.84825 103.78487"
   version="1.1"
   id="svg1"
   xml:space="preserve"
   sodipodi:docname="ws.svg"
   inkscape:version="1.3-dev (77bc73e, 2022-05-18)"
   inkscape:export-filename="../myo-training/public/images/ws.svg"
   inkscape:export-xdpi="147.08694"
   inkscape:export-ydpi="147.08694"
   xmlns:inkscape="http://www.inkscape.org/namespaces/inkscape"
   xmlns:sodipodi="http://sodipodi.sourceforge.net/DTD/sodipodi-0.dtd"
   xmlns="http://www.w3.org/2000/svg"
   xmlns:svg="http://www.w3.org/2000/svg"><sodipodi:namedview
     id="namedview1"
     pagecolor="#ffffff"
     bordercolor="#000000"
     borderopacity="0.25"
     inkscape:showpageshadow="2"
     inkscape:pageopacity="0.0"
     inkscape:pagecheckerboard="0"
     inkscape:deskcolor="#d1d1d1"
     inkscape:document-units="mm"
     showgrid="false"
     inkscape:zoom="0.82864878"
     inkscape:cx="444.09647"
     inkscape:cy="489.95426"
     inkscape:window-width="1792"
     inkscape:window-height="1092"
     inkscape:window-x="0"
     inkscape:window-y="28"
     inkscape:window-maximized="0"
     inkscape:current-layer="layer1" /><defs
     id="defs1" /><g
     inkscape:label="Calque 1"
     inkscape:groupmode="layer"
     id="layer1"
     transform="translate(-0.61498322,-102.08154)"><path
       id="path1"
       style="fill:#000000;stroke-width:0.679281"
       d="m 150.96104,102.10179 c -3.73027,0.15993 -7.31181,1.94415 -9.84157,4.66407 -5.9647,-2.82469 -13.21836,-0.0688 -17.29988,4.7308 -1.28725,1.1544 -2.20596,2.66277 -1.8123,4.44708 0.14258,14.1835 -0.31286,28.38953 0.42682,42.55698 0.38568,5.06487 2.82013,9.64022 5.84179,13.6152 1.40909,2.35344 3.92398,4.43196 3.55325,7.4159 0.26039,6.77675 -0.21914,14.24789 3.77772,20.11548 3.78068,4.76691 10.32897,5.34965 15.96589,5.5482 10.27881,0.58225 20.84282,1.56459 30.92599,-1.07528 5.34833,-1.57878 9.86851,-5.92449 11.02264,-11.47032 1.50068,-5.44808 1.02009,-11.12261 1.72399,-16.62017 6.93651,-8.54892 12.83378,-18.50388 14.00171,-29.65351 0.7913,-6.62295 -0.45635,-14.36888 -5.98187,-18.72504 -1.08112,-1.03316 -2.86726,-1.54373 -3.69634,-2.57597 0.22579,-5.91229 -0.41626,-12.59319 -5.06865,-16.81953 -3.94206,-3.66479 -10.27627,-4.16892 -14.89545,-1.51144 -4.71086,-5.53785 -13.738,-6.11295 -19.35344,-1.64297 -2.57078,-2.1008 -5.9769,-3.16652 -9.2903,-2.99948 z m 0.28101,9.07953 c 3.44714,1.3032 4.22679,5.5644 4.57707,8.80844 0.44315,5.16642 0.89035,10.39499 0.56261,15.56577 -1.26862,2.13688 -4.82393,2.26673 -6.60969,0.76745 -0.90431,-2.19465 -0.51786,-4.76514 -0.91874,-7.10689 -0.32308,-5.24442 -0.79857,-10.69812 -0.25403,-15.95945 0.61485,-0.91776 1.42674,-2.05507 2.64278,-2.07532 z m 19.65613,0.94037 c 2.36132,0.8676 1.44486,4.00913 1.77866,5.94363 -0.24404,1.11222 0.85555,3.78999 -0.83053,3.54095 -2.0327,-0.0374 -4.13151,0.029 -6.03919,0.80556 -0.29153,-3.09243 -1.01773,-6.61517 0.61074,-9.43082 1.25543,-0.9775 2.98334,-0.80808 4.48032,-0.85932 z m -34.81029,2.12939 c 2.36854,1.73657 1.96004,5.15591 2.3381,7.75742 0.16658,3.72516 0.94714,7.52624 0.55127,11.21529 -0.757,1.53134 -3.26128,3.8366 -4.73232,2.06693 0.5067,-1.66532 -0.83393,-3.08371 -1.90031,-3.98238 -1.23593,-5.22074 -1.28916,-11.54169 2.20837,-16.10607 0.41435,-0.4306 0.89879,-0.9228 1.53489,-0.95119 z m 50.40221,0.62151 c 2.76212,0.0221 2.93614,3.53427 3.0629,5.606 -0.16883,1.00474 0.25622,2.42464 -0.0308,3.17627 -2.00196,-0.2103 -4.42766,0.26509 -6.11788,-0.78364 -0.34844,-2.40716 -0.26176,-4.88908 0.25402,-7.20419 0.71776,-0.72371 1.88129,-0.72847 2.83194,-0.79444 z m -13.72737,16.75389 c 7.96986,1.18667 16.19799,1.12012 23.94188,3.53562 2.42939,0.58699 3.14122,3.17422 3.00595,5.38278 0.0941,6.81931 -2.38914,13.40606 -5.3191,19.45883 -2.7532,5.30236 -7.2264,9.64231 -9.01469,15.44233 -14.72543,0 -29.45083,0 -44.17623,0 -1.82464,-7.12274 -9.08415,-11.9241 -9.14767,-19.63041 -0.31581,-3.77002 -0.4039,-7.55532 -0.41829,-11.33729 3.68158,1.14804 7.92712,0.4083 11.05218,-1.5835 3.52138,4.29194 10.02853,5.31063 15.14337,3.57777 1.38717,-0.36627 2.85838,-1.44332 3.89123,-1.98347 1.44523,1.19283 3.01901,2.22875 4.71271,3.03193 -2.98413,5.61494 -4.30246,12.15359 -3.73598,18.47167 0.5598,3.03709 4.35524,5.58701 7.11918,3.56238 3.10342,-2.96467 2.4963,-7.65313 3.37797,-11.50167 0.46974,-2.45276 0.61373,-5.69598 2.99521,-7.05817 4.14911,-1.19578 8.36842,1.72752 12.5101,0.23882 3.47487,-1.22951 3.51715,-6.50064 0.40656,-8.17234 -4.56867,-2.31281 -9.87487,-2.41032 -14.77231,-3.68492 -2.30585,-0.62523 -4.88252,-1.25356 -6.57664,-3.01589 -0.8457,-1.98805 0.87713,-4.65988 2.83501,-5.07992 0.72316,0.1151 1.44635,0.2305 2.16956,0.34557 z m -9.3606,53.75299 c 7.12855,0 14.25705,0 21.38557,0 -0.28316,2.94402 0.21222,6.86619 -2.63738,8.69042 -3.18056,1.18244 -6.69337,0.69718 -10.02371,0.98841 -9.22009,0.20005 -18.40631,0.34025 -27.50505,-0.79386 -3.30647,-1.55465 -2.73286,-5.85482 -2.83193,-8.88497 7.20417,0 14.40836,0 21.6125,0 z" /><path
       id="path2"
       style="fill:#000000;stroke-width:0.760315"
       d="m 21.931314,102.09779 c -6.368169,0.23906 -10.780708,6.28229 -11.78642,12.12883 -0.9087897,4.00467 -0.7751778,8.13629 -0.9821835,12.21289 -5.261855,2.47798 -8.44349392,8.14175 -8.49671606,13.87415 -0.57877439,10.27275 3.84804846,20.0828 9.18706186,28.60182 1.5627877,2.55708 3.6253677,4.89063 5.0764407,7.44273 0.638691,7.36039 -0.209689,15.51404 3.314356,22.39371 3.357396,5.24446 10.137675,6.37258 15.898483,6.32429 9.903746,0.30406 19.920101,0.81489 29.740944,-0.75447 4.899938,-0.88736 9.573614,-4.27016 10.708176,-9.31956 2.043787,-6.26713 0.791925,-12.93746 2.592463,-19.188 3.065809,-5.0798 7.773678,-9.71458 7.961988,-16.01695 1.086412,-10.46182 0.58002,-21.00543 0.782101,-31.50555 0.0024,-4.9462 0.130378,-9.98211 -0.748601,-14.84525 -2.589629,-5.45711 -9.51146,-7.63803 -15.1315,-6.52183 -1.63998,1.10772 -2.515751,-1.06672 -3.856561,-1.70507 -4.817564,-3.58811 -12.22838,-3.88824 -16.932411,0.0605 -4.736205,-3.96414 -11.929627,-3.52689 -16.843332,-0.11785 -1.171313,0.15418 -2.219503,-1.24729 -3.428743,-1.53822 -2.195649,-1.04041 -4.6152,-1.65152 -7.055546,-1.52625 z m 1.268441,10.58531 c 1.752918,0.0613 3.989791,1.05012 3.766038,3.1262 0.761929,3.44047 5.554903,5.66332 8.200172,2.8216 1.633934,-1.22474 1.835792,-3.47963 2.481894,-5.13591 2.279685,-1.58711 6.567324,-0.96644 6.857228,2.27502 0.571303,3.49625 5.300588,5.53298 7.947404,2.90173 1.497894,-1.07432 1.416193,-3.02026 2.099103,-4.48446 1.861759,-2.40676 7.116266,-1.81646 7.228993,1.62762 0.342599,2.7007 3.142618,4.69685 5.780948,3.738 2.623451,-0.58254 4.330052,-3.94039 7.273897,-2.8961 1.992573,1.66567 1.396169,4.68023 1.863105,6.99939 0.755538,10.78886 -0.317283,21.56868 -2.048315,32.1876 -0.727691,4.49614 -2.036563,9.37145 -4.951208,13.1391 -1.297441,2.12888 -2.408446,4.39772 -3.052326,6.8136 -13.934148,0 -27.8683,0 -41.802448,0 -2.268803,-8.07163 -9.078682,-13.8303 -11.668744,-21.77633 -1.653522,-4.2388 -2.876843,-8.77609 -2.547906,-13.36398 1.802473,3.16466 6.953781,2.7185 8.222423,-0.67912 1.429983,-3.836 0.84637,-8.06214 1.040335,-12.07939 0.07389,-4.81079 -0.253455,-9.7177 0.536797,-14.45688 0.691011,-0.73073 1.829202,-0.79355 2.77261,-0.75769 z m 22.556934,73.00274 c 6.804312,0 13.608621,0 20.41293,0 -0.374941,2.90924 -0.0768,6.75899 -2.868024,8.53671 -3.337274,0.9575 -6.897985,0.56036 -10.332233,0.86508 -7.918281,0.19331 -15.932756,0.63265 -23.784024,-0.52989 -2.386513,-0.51196 -3.603897,-2.83098 -3.617599,-5.10407 0.222048,-1.22935 -1.358159,-4.27186 0.818838,-3.76783 6.456705,0 12.913409,0 19.370112,0 z"
       inkscape:export-filename="../myo-training/public/images/ws.svg"
       inkscape:export-xdpi="147.08694"
       inkscape:export-ydpi="147.08694" /><path
       id="rect2"
       style="opacity:1;fill:#000000;fill-opacity:1;stroke:#000000;stroke-width:1.9298"
       d="m 111.26633,181.7171 0.0269,3.42819 H 84.872551 v 7.43023 h 26.479019 l 0.0302,3.90722 6.36496,-3.74158 6.36494,-3.74089 -6.42267,-3.64193 z"
       inkscape:export-filename="../myo-training/public/images/rect2.svg"
       inkscape:export-xdpi="147.08694"
       inkscape:export-ydpi="147.08694" /></g></svg>
