<?xml version="1.0" encoding="UTF-8" standalone="no"?>
<!-- Created with Inkscape (http://www.inkscape.org/) -->

<svg
   version="1.1"
   id="svg1"
   width="300"
   height="200"
   viewBox="0 0 300 200"
   sodipodi:docname="pinch-to-zoom.jpeg.svg"
   inkscape:export-filename="po.png"
   inkscape:export-xdpi="96"
   inkscape:export-ydpi="96"
   inkscape:version="1.3-dev (77bc73e, 2022-05-18)"
   xmlns:inkscape="http://www.inkscape.org/namespaces/inkscape"
   xmlns:sodipodi="http://sodipodi.sourceforge.net/DTD/sodipodi-0.dtd"
   xmlns:xlink="http://www.w3.org/1999/xlink"
   xmlns="http://www.w3.org/2000/svg"
   xmlns:svg="http://www.w3.org/2000/svg">
  <defs
     id="defs1">
    <linearGradient
       id="linearGradient1"
       inkscape:swatch="solid">
      <stop
         style="stop-color:#000000;stop-opacity:1;"
         offset="0"
         id="stop1" />
    </linearGradient>
    <linearGradient
       inkscape:collect="always"
       xlink:href="#linearGradient1"
       id="linearGradient2"
       x1="190.90858"
       y1="105.31877"
       x2="296.75546"
       y2="105.31877"
       gradientUnits="userSpaceOnUse"
       gradientTransform="translate(-108.04381,-8.0302829)" />
  </defs>
  <sodipodi:namedview
     id="namedview1"
     pagecolor="#ffffff"
     bordercolor="#000000"
     borderopacity="0.25"
     inkscape:showpageshadow="2"
     inkscape:pageopacity="0.0"
     inkscape:pagecheckerboard="0"
     inkscape:deskcolor="#d1d1d1"
     showgrid="false"
     inkscape:zoom="3.8174852"
     inkscape:cx="99.018066"
     inkscape:cy="119.45037"
     inkscape:window-width="1792"
     inkscape:window-height="982"
     inkscape:window-x="0"
     inkscape:window-y="25"
     inkscape:window-maximized="1"
     inkscape:current-layer="g1" />
  <g
     inkscape:groupmode="layer"
     inkscape:label="Image"
     id="g1">
    <path
       style="fill:none;stroke:url(#linearGradient2);stroke-width:9.4488189;stroke-dasharray:none"
       d="m 128.11951,173.0161 c 0,0 2.9201,-19.34568 0.73003,-24.09085 -2.19008,-4.74517 -3.28512,-11.68041 -6.93525,-15.69555 -3.65013,-4.01514 -8.03028,-8.03029 -14.2355,-16.7906 -6.20522,-8.76031 -6.20522,-13.87049 -9.125321,-17.885632 -2.920106,-4.01514 -8.030278,-8.030279 -9.855348,-11.680408 -1.82506,-3.650128 -1.095037,-6.570231 2.190083,-6.570231 3.28511,0 3.28511,-0.365013 8.39529,2.920102 5.110176,3.285116 6.935246,8.760306 11.680416,12.775446 4.74516,4.015153 6.20521,10.585383 10.58537,7.665273 4.38015,-2.9201 6.57024,-22.995808 8.3953,-29.201027 1.82507,-6.205218 10.58537,-43.071517 11.68041,-45.626607 1.09503,-2.55509 0.73002,-8.760309 5.8402,-8.395296 5.11018,0.365013 5.11018,13.505476 4.38016,16.060566 -0.73003,2.55509 -4.74517,20.44072 -4.01515,22.630797 0.73003,2.190077 -2.55509,17.520617 -1.09503,19.345682 1.46005,1.825064 1.82506,5.475192 3.28511,3.650128 1.46005,-1.825064 2.9201,-7.300257 5.47519,-8.030283 2.55509,-0.730025 4.74517,-1.095038 6.57024,1.095039 1.82506,2.190077 1.46005,4.380154 2.19007,5.840206 0.73003,1.460051 2.92011,-1.825065 7.66527,1.095038 4.74517,2.920103 5.84021,6.205219 5.84021,6.205219 l 0.73002,5.110175 6.57023,1.46006 3.10261,4.38015 0.54752,5.110183 c 0,0 -14.2355,38.69136 -14.60051,40.15142 -0.36501,1.46005 -7.66527,25.91591 -6.20522,28.471 1.46005,2.55509 -39.7864,0 -39.7864,0 z"
       id="path1"
       sodipodi:nodetypes="csssssssssssssssssssscccccssc" />
  </g>
</svg>
