<?xml version="1.0" encoding="UTF-8" standalone="no"?>
<!-- Created with Inkscape (http://www.inkscape.org/) -->

<svg
   version="1.1"
   id="svg1"
   width="209"
   height="242"
   viewBox="0 0 209 242"
   sodipodi:docname="rt.svg"
   inkscape:export-filename="rt.png"
   inkscape:export-xdpi="96"
   inkscape:export-ydpi="96"
   inkscape:version="1.3-dev (77bc73e, 2022-05-18)"
   xmlns:inkscape="http://www.inkscape.org/namespaces/inkscape"
   xmlns:sodipodi="http://sodipodi.sourceforge.net/DTD/sodipodi-0.dtd"
   xmlns:xlink="http://www.w3.org/1999/xlink"
   xmlns="http://www.w3.org/2000/svg"
   xmlns:svg="http://www.w3.org/2000/svg">
  <sodipodi:namedview
     id="namedview1"
     pagecolor="#ffffff"
     bordercolor="#000000"
     borderopacity="0.25"
     inkscape:showpageshadow="2"
     inkscape:pageopacity="0.0"
     inkscape:pagecheckerboard="0"
     inkscape:deskcolor="#d1d1d1"
     showgrid="false"
     inkscape:zoom="4.1191612"
     inkscape:cx="101.2342"
     inkscape:cy="102.69081"
     inkscape:window-width="1792"
     inkscape:window-height="982"
     inkscape:window-x="0"
     inkscape:window-y="25"
     inkscape:window-maximized="1"
     inkscape:current-layer="g1" />
  <defs
     id="defs1">
    <linearGradient
       id="linearGradient1"
       inkscape:swatch="solid">
      <stop
         style="stop-color:#000000;stop-opacity:1;"
         offset="0"
         id="stop1" />
    </linearGradient>
    <linearGradient
       inkscape:collect="always"
       xlink:href="#linearGradient1"
       id="linearGradient2"
       x1="30.208197"
       y1="109.06842"
       x2="174.91222"
       y2="109.06842"
       gradientUnits="userSpaceOnUse" />
  </defs>
  <g
     id="g1"
     style="stroke-width:5.66929134;stroke-dasharray:none">
    <path
       style="fill:#000000;stroke-width:4.53543307;stroke-dasharray:none;stroke:url(#linearGradient2)"
       d="m 138.83509,134.71019 c -19.05193,-5.90432 -27.23214,-7.22824 -59.236612,-9.58706 -4.805134,-0.35416 -8.531252,-0.97619 -8.280263,-1.3823 0.25099,-0.40611 -0.542537,-0.55947 -1.763392,-0.34079 -1.437904,0.25755 -6.974697,-2.29431 -15.719738,-7.24509 -17.54557,-9.93296 -20.829519,-12.21106 -22.634669,-15.70184 -1.332353,-2.576483 -1.327668,-3.148112 0.04294,-5.23993 0.846143,-1.291378 2.396844,-2.620406 3.446002,-2.953395 1.086954,-0.344986 2.163126,-1.883265 2.501642,-3.575844 0.503374,-2.516853 1.061051,-2.970407 3.652329,-2.970407 1.682034,0 5.337318,1.154894 8.122853,2.566432 4.772427,2.418372 5.172021,2.469225 6.926461,0.881478 2.408173,-2.179366 5.556647,-1.39585 12.666158,3.15205 3.00717,1.923663 9.757911,5.030992 15.001646,6.905176 l 9.534064,3.40761 10.385559,-1.16056 c 6.30174,-0.7042 10.2545,-1.571795 10.05226,-2.206372 -0.18332,-0.575198 -3.67769,-2.203268 -7.76527,-3.617934 -12.811154,-4.433793 -15.931975,-6.762247 -15.931975,-11.886889 0,-3.173379 4.263059,-4.335116 13.430235,-3.659903 4.36162,0.321257 8.18662,0.929436 8.5,1.351508 0.31337,0.422072 3.92761,0.922698 8.03164,1.112502 10.12747,0.468378 20.90624,3.382031 29.43789,7.957479 5.71105,3.062788 8.02254,5.06875 11.81416,10.252609 2.59265,3.54465 6.9849,9.45282 9.76056,13.12927 3.52371,4.66729 4.68248,6.90952 3.83989,7.43027 -1.38971,0.85889 -4.4837,-2.72311 -13.34649,-15.45158 -6.78881,-9.749878 -12.24438,-13.759546 -23.46788,-17.248137 -8.07162,-2.508892 -27.02484,-5.245448 -37,-5.342237 -6.817576,-0.06615 -7.500005,0.106314 -7.500005,1.895413 0,2.424867 6.01537,5.976177 12.934165,7.635967 2.71957,0.652417 7.61166,2.872504 10.8713,4.933528 l 5.92661,3.747316 -3.86603,0.61049 c -2.12632,0.33577 -14.5092,1.96594 -27.517519,3.62259 l -23.651475,3.01211 -14.73582,-7.0151 c -8.104702,-3.858295 -15.518938,-7.015086 -16.476081,-7.015086 -2.67493,0 -4.317689,2.510128 -3.114313,4.758657 1.3086,2.445139 5.764633,5.390199 21.45818,14.182049 14.334131,8.03027 15.005638,8.20269 39.170983,10.05807 22.454955,1.72406 26.493295,2.4532 45.000005,8.12489 26.39503,8.05438 15.77141,7.88691 -0.5,2.87299 z M 72.835085,104.71353 c 0,-0.55 -0.720936,-1 -1.60208,-1 -0.881144,0 -5.943644,-2.63381 -11.25,-5.85291 -15.255198,-9.254573 -20.14792,-11.408433 -20.14792,-8.869461 0,2.434191 3.787929,5.037791 15.834151,10.883465 11.029159,5.352126 17.165849,7.082006 17.165849,4.838906 z m 5.447943,-4.32807 c -3.328631,-1.194561 -7.378631,-3.123952 -9,-4.28754 -3.640555,-2.612673 -8.993265,-5.384386 -10.398283,-5.384386 -2.446576,0 -0.671727,2.182127 4.793532,5.893514 6.506841,4.418712 10.718658,5.920242 16.656808,5.938222 l 4,0.0121 -6.052057,-2.17192 z"
       id="path1" />
    <rect
       style="fill:none;stroke-width:5.66929134;stroke-dasharray:none"
       id="rect1"
       width="181.72667"
       height="58.245728"
       x="6.6011825"
       y="33.394218" />
  </g>
</svg>
